<mxfile host="app.diagrams.net" modified="2020-07-15T13:40:50.550Z" agent="5.0 (Macintosh; Intel Mac OS X 10_11_6) AppleWebKit/537.36 (KHTML, like Gecko) Chrome/83.0.4103.116 Safari/537.36" etag="pAM_anTxuZ8kIezmtvt8" version="13.3.5" type="github" pages="9">
  <diagram id="1gmsiKiEbywhcep5-7SZ" name="推送架构">
    <mxGraphModel dx="946" dy="511" grid="0" gridSize="10" guides="1" tooltips="1" connect="1" arrows="1" fold="1" page="1" pageScale="1" pageWidth="827" pageHeight="1169" math="0" shadow="0">
      <root>
        <mxCell id="0" />
        <mxCell id="1" parent="0" />
        <mxCell id="fQvyzwxkOrsydxk8rcKy-37" value="" style="rounded=0;whiteSpace=wrap;html=1;fillColor=#e1d5e7;strokeColor=#9673a6;" parent="1" vertex="1">
          <mxGeometry x="95" y="560" width="604" height="80" as="geometry" />
        </mxCell>
        <mxCell id="fQvyzwxkOrsydxk8rcKy-36" value="" style="rounded=0;whiteSpace=wrap;html=1;fillColor=#fff2cc;strokeColor=#d6b656;" parent="1" vertex="1">
          <mxGeometry x="95" y="421" width="605" height="130" as="geometry" />
        </mxCell>
        <mxCell id="fQvyzwxkOrsydxk8rcKy-35" value="" style="rounded=0;whiteSpace=wrap;html=1;fillColor=#d5e8d4;strokeColor=#82b366;" parent="1" vertex="1">
          <mxGeometry x="95" y="330" width="605" height="80" as="geometry" />
        </mxCell>
        <mxCell id="fQvyzwxkOrsydxk8rcKy-34" value="" style="rounded=0;whiteSpace=wrap;html=1;fillColor=#dae8fc;strokeColor=#6c8ebf;" parent="1" vertex="1">
          <mxGeometry x="94" y="240" width="606" height="80" as="geometry" />
        </mxCell>
        <mxCell id="fQvyzwxkOrsydxk8rcKy-30" value="" style="rounded=0;whiteSpace=wrap;html=1;fillColor=#f5f5f5;strokeColor=#666666;fontColor=#333333;" parent="1" vertex="1">
          <mxGeometry x="93" y="150" width="607" height="80" as="geometry" />
        </mxCell>
        <mxCell id="fQvyzwxkOrsydxk8rcKy-17" value="" style="rounded=1;whiteSpace=wrap;html=1;" parent="1" vertex="1">
          <mxGeometry x="140" y="440" width="260" height="100" as="geometry" />
        </mxCell>
        <mxCell id="fQvyzwxkOrsydxk8rcKy-7" value="IM" style="rounded=1;whiteSpace=wrap;html=1;" parent="1" vertex="1">
          <mxGeometry x="355" y="160" width="120" height="60" as="geometry" />
        </mxCell>
        <mxCell id="fQvyzwxkOrsydxk8rcKy-8" value="运营推送平台" style="rounded=1;whiteSpace=wrap;html=1;" parent="1" vertex="1">
          <mxGeometry x="160" y="160.5" width="120" height="59" as="geometry" />
        </mxCell>
        <mxCell id="fQvyzwxkOrsydxk8rcKy-9" value="推送网关（pushgateway）" style="rounded=1;whiteSpace=wrap;html=1;" parent="1" vertex="1">
          <mxGeometry x="150" y="250" width="530" height="60" as="geometry" />
        </mxCell>
        <mxCell id="fQvyzwxkOrsydxk8rcKy-10" value="绘本推送(pushpicturebook)" style="rounded=1;whiteSpace=wrap;html=1;" parent="1" vertex="1">
          <mxGeometry x="150" y="340" width="120" height="60" as="geometry" />
        </mxCell>
        <mxCell id="fQvyzwxkOrsydxk8rcKy-11" value="少儿推送&lt;br&gt;(pushkid)" style="rounded=1;whiteSpace=wrap;html=1;" parent="1" vertex="1">
          <mxGeometry x="285" y="340" width="120" height="60" as="geometry" />
        </mxCell>
        <mxCell id="fQvyzwxkOrsydxk8rcKy-12" value="课堂推送&lt;br&gt;(pushrtc)" style="rounded=1;whiteSpace=wrap;html=1;" parent="1" vertex="1">
          <mxGeometry x="420" y="340" width="120" height="60" as="geometry" />
        </mxCell>
        <mxCell id="fQvyzwxkOrsydxk8rcKy-13" value="其他业务" style="rounded=1;whiteSpace=wrap;html=1;" parent="1" vertex="1">
          <mxGeometry x="560" y="160" width="120" height="60" as="geometry" />
        </mxCell>
        <mxCell id="fQvyzwxkOrsydxk8rcKy-14" value="其他推送&lt;br&gt;(pushxxx)" style="rounded=1;whiteSpace=wrap;html=1;" parent="1" vertex="1">
          <mxGeometry x="560" y="340" width="120" height="60" as="geometry" />
        </mxCell>
        <mxCell id="fQvyzwxkOrsydxk8rcKy-15" value="绘本长连接&lt;br&gt;（connectpicturebook）" style="rounded=1;whiteSpace=wrap;html=1;" parent="1" vertex="1">
          <mxGeometry x="147" y="460" width="120" height="60" as="geometry" />
        </mxCell>
        <mxCell id="fQvyzwxkOrsydxk8rcKy-16" value="其他长连接&lt;br&gt;（connect）" style="rounded=1;whiteSpace=wrap;html=1;" parent="1" vertex="1">
          <mxGeometry x="272" y="460" width="120" height="60" as="geometry" />
        </mxCell>
        <mxCell id="fQvyzwxkOrsydxk8rcKy-18" value="自建长连接" style="text;html=1;strokeColor=none;fillColor=none;align=center;verticalAlign=middle;whiteSpace=wrap;rounded=0;" parent="1" vertex="1">
          <mxGeometry x="234" y="440" width="80" height="20" as="geometry" />
        </mxCell>
        <mxCell id="fQvyzwxkOrsydxk8rcKy-19" value="APNS" style="rounded=1;whiteSpace=wrap;html=1;" parent="1" vertex="1">
          <mxGeometry x="414" y="440" width="76" height="100" as="geometry" />
        </mxCell>
        <mxCell id="fQvyzwxkOrsydxk8rcKy-24" value="GCM" style="rounded=1;whiteSpace=wrap;html=1;" parent="1" vertex="1">
          <mxGeometry x="510" y="440" width="76" height="100" as="geometry" />
        </mxCell>
        <mxCell id="fQvyzwxkOrsydxk8rcKy-25" value="华为&lt;br&gt;小米&lt;br&gt;VIVO&lt;br&gt;OPPO" style="rounded=1;whiteSpace=wrap;html=1;" parent="1" vertex="1">
          <mxGeometry x="604" y="440" width="76" height="100" as="geometry" />
        </mxCell>
        <mxCell id="fQvyzwxkOrsydxk8rcKy-26" value="DB&lt;br&gt;（mongo/Tidb）" style="rounded=1;whiteSpace=wrap;html=1;" parent="1" vertex="1">
          <mxGeometry x="144" y="570" width="120" height="60" as="geometry" />
        </mxCell>
        <mxCell id="fQvyzwxkOrsydxk8rcKy-27" value="codis" style="rounded=1;whiteSpace=wrap;html=1;" parent="1" vertex="1">
          <mxGeometry x="285" y="570" width="120" height="60" as="geometry" />
        </mxCell>
        <mxCell id="fQvyzwxkOrsydxk8rcKy-28" value="kafka" style="rounded=1;whiteSpace=wrap;html=1;" parent="1" vertex="1">
          <mxGeometry x="420" y="570" width="120" height="60" as="geometry" />
        </mxCell>
        <mxCell id="fQvyzwxkOrsydxk8rcKy-29" value="其他基础资源" style="rounded=1;whiteSpace=wrap;html=1;" parent="1" vertex="1">
          <mxGeometry x="560" y="570" width="120" height="60" as="geometry" />
        </mxCell>
        <mxCell id="gd9t8con9MzDynAxI_Vn-1" value="业&lt;br&gt;务&lt;br&gt;层" style="text;html=1;strokeColor=none;fillColor=none;align=center;verticalAlign=middle;whiteSpace=wrap;rounded=0;" parent="1" vertex="1">
          <mxGeometry x="93" y="180" width="40" height="20" as="geometry" />
        </mxCell>
        <mxCell id="gd9t8con9MzDynAxI_Vn-3" value="网&lt;br&gt;关&lt;br&gt;层" style="text;html=1;strokeColor=none;fillColor=none;align=center;verticalAlign=middle;whiteSpace=wrap;rounded=0;" parent="1" vertex="1">
          <mxGeometry x="97" y="250" width="32" height="51" as="geometry" />
        </mxCell>
        <mxCell id="gd9t8con9MzDynAxI_Vn-4" value="推&lt;br&gt;送&lt;br&gt;服&lt;br&gt;务&lt;br&gt;层" style="text;html=1;strokeColor=none;fillColor=none;align=center;verticalAlign=middle;whiteSpace=wrap;rounded=0;" parent="1" vertex="1">
          <mxGeometry x="97" y="344.5" width="32" height="51" as="geometry" />
        </mxCell>
        <mxCell id="gd9t8con9MzDynAxI_Vn-5" value="长&lt;br&gt;连&lt;br&gt;接&lt;br&gt;服&lt;br&gt;务&lt;br&gt;层" style="text;html=1;strokeColor=none;fillColor=none;align=center;verticalAlign=middle;whiteSpace=wrap;rounded=0;" parent="1" vertex="1">
          <mxGeometry x="95" y="453" width="32" height="51" as="geometry" />
        </mxCell>
        <mxCell id="gd9t8con9MzDynAxI_Vn-6" value="基&lt;br&gt;础&lt;br&gt;资&lt;br&gt;源&lt;br&gt;层" style="text;html=1;strokeColor=none;fillColor=none;align=center;verticalAlign=middle;whiteSpace=wrap;rounded=0;" parent="1" vertex="1">
          <mxGeometry x="97" y="577" width="32" height="51" as="geometry" />
        </mxCell>
      </root>
    </mxGraphModel>
  </diagram>
  <diagram id="wsFd-yzhtOEs7dSseuDR" name="推送流程">
    
    <mxGraphModel dx="946" dy="524" grid="0" gridSize="10" guides="1" tooltips="1" connect="1" arrows="1" fold="1" page="1" pageScale="1" pageWidth="827" pageHeight="1169" math="0" shadow="0">
      
      <root>
        
        <mxCell id="fRDV0XeKPv1J6HkiKC1O-0" />
        
        <mxCell id="fRDV0XeKPv1J6HkiKC1O-1" parent="fRDV0XeKPv1J6HkiKC1O-0" />
        
        <mxCell id="H0ET83P_-RouKrvaE45x-5" value="" style="group" vertex="1" connectable="0" parent="fRDV0XeKPv1J6HkiKC1O-1">
          
          <mxGeometry x="339" y="573" width="168" height="106" as="geometry" />
          
        </mxCell>
        
        <mxCell id="H0ET83P_-RouKrvaE45x-1" value="推送通道&lt;br&gt;（APNS/GCM/华为/小米...）" style="rounded=1;whiteSpace=wrap;html=1;" vertex="1" parent="H0ET83P_-RouKrvaE45x-5">
          
          <mxGeometry width="168" height="106" as="geometry" />
          
        </mxCell>
        
        <mxCell id="H0ET83P_-RouKrvaE45x-4" value="" style="html=1;verticalLabelPosition=bottom;align=center;labelBackgroundColor=#ffffff;verticalAlign=top;strokeWidth=2;strokeColor=#0080F0;shadow=0;dashed=0;shape=mxgraph.ios7.icons.globe;" vertex="1" parent="H0ET83P_-RouKrvaE45x-5">
          
          <mxGeometry x="65" y="4" width="30" height="30" as="geometry" />
          
        </mxCell>
        
        <mxCell id="H0ET83P_-RouKrvaE45x-6" value="" style="group" vertex="1" connectable="0" parent="fRDV0XeKPv1J6HkiKC1O-1">
          
          <mxGeometry x="350" y="304" width="120" height="86" as="geometry" />
          
        </mxCell>
        
        <mxCell id="H0ET83P_-RouKrvaE45x-3" value="推送服务" style="rounded=1;whiteSpace=wrap;html=1;" vertex="1" parent="H0ET83P_-RouKrvaE45x-6">
          
          <mxGeometry width="120" height="86" as="geometry" />
          
        </mxCell>
        
        <mxCell id="H0ET83P_-RouKrvaE45x-2" value="" style="html=1;verticalLabelPosition=bottom;align=center;labelBackgroundColor=#ffffff;verticalAlign=top;strokeWidth=2;strokeColor=#0080F0;shadow=0;dashed=0;shape=mxgraph.ios7.icons.pointer;" vertex="1" parent="H0ET83P_-RouKrvaE45x-6">
          
          <mxGeometry x="39" y="4" width="30" height="30" as="geometry" />
          
        </mxCell>
        
        <mxCell id="H0ET83P_-RouKrvaE45x-8" value="" style="group" vertex="1" connectable="0" parent="fRDV0XeKPv1J6HkiKC1O-1">
          
          <mxGeometry x="8" y="434" width="135" height="96" as="geometry" />
          
        </mxCell>
        
        <mxCell id="H0ET83P_-RouKrvaE45x-7" value="客户端" style="rounded=1;whiteSpace=wrap;html=1;" vertex="1" parent="H0ET83P_-RouKrvaE45x-8">
          
          <mxGeometry width="135" height="96" as="geometry" />
          
        </mxCell>
        
        <mxCell id="H0ET83P_-RouKrvaE45x-0" value="" style="image;html=1;labelBackgroundColor=#ffffff;image=img/lib/clip_art/telecommunication/iPhone_128x128.png" vertex="1" parent="H0ET83P_-RouKrvaE45x-8">
          
          <mxGeometry x="35" width="65" height="37" as="geometry" />
          
        </mxCell>
        
        <mxCell id="H0ET83P_-RouKrvaE45x-11" style="rounded=0;orthogonalLoop=1;jettySize=auto;html=1;fillColor=#dae8fc;strokeColor=#6c8ebf;" edge="1" parent="fRDV0XeKPv1J6HkiKC1O-1" source="H0ET83P_-RouKrvaE45x-7" target="H0ET83P_-RouKrvaE45x-1">
          
          <mxGeometry relative="1" as="geometry" />
          
        </mxCell>
        
        <mxCell id="H0ET83P_-RouKrvaE45x-12" value="1.1建立长连接" style="edgeLabel;html=1;align=center;verticalAlign=middle;resizable=0;points=[];" vertex="1" connectable="0" parent="H0ET83P_-RouKrvaE45x-11">
          
          <mxGeometry x="-0.0193" y="1" relative="1" as="geometry">
            
            <mxPoint as="offset" />
            
          </mxGeometry>
          
        </mxCell>
        
        <mxCell id="H0ET83P_-RouKrvaE45x-13" style="edgeStyle=none;rounded=0;orthogonalLoop=1;jettySize=auto;html=1;fillColor=#dae8fc;strokeColor=#6c8ebf;exitX=0.5;exitY=0;exitDx=0;exitDy=0;entryX=0;entryY=0.25;entryDx=0;entryDy=0;" edge="1" parent="fRDV0XeKPv1J6HkiKC1O-1" source="H0ET83P_-RouKrvaE45x-7" target="H0ET83P_-RouKrvaE45x-3">
          
          <mxGeometry relative="1" as="geometry" />
          
        </mxCell>
        
        <mxCell id="H0ET83P_-RouKrvaE45x-14" value="1.2绑定设备（uid,token）" style="edgeLabel;html=1;align=center;verticalAlign=middle;resizable=0;points=[];" vertex="1" connectable="0" parent="H0ET83P_-RouKrvaE45x-13">
          
          <mxGeometry x="0.0923" relative="1" as="geometry">
            
            <mxPoint as="offset" />
            
          </mxGeometry>
          
        </mxCell>
        
        <mxCell id="H0ET83P_-RouKrvaE45x-15" value="" style="endArrow=classic;html=1;entryX=1;entryY=0.5;entryDx=0;entryDy=0;fillColor=#f8cecc;strokeColor=#b85450;" edge="1" parent="fRDV0XeKPv1J6HkiKC1O-1" target="H0ET83P_-RouKrvaE45x-3">
          
          <mxGeometry width="50" height="50" relative="1" as="geometry">
            
            <mxPoint x="629" y="347" as="sourcePoint" />
            
            <mxPoint x="481" y="491" as="targetPoint" />
            
          </mxGeometry>
          
        </mxCell>
        
        <mxCell id="H0ET83P_-RouKrvaE45x-16" value="2.1推送请求(uid,msg)" style="edgeLabel;html=1;align=center;verticalAlign=middle;resizable=0;points=[];" vertex="1" connectable="0" parent="H0ET83P_-RouKrvaE45x-15">
          
          <mxGeometry x="-0.4265" y="1" relative="1" as="geometry">
            
            <mxPoint x="-24" y="-1" as="offset" />
            
          </mxGeometry>
          
        </mxCell>
        
        <mxCell id="H0ET83P_-RouKrvaE45x-17" style="edgeStyle=none;rounded=0;orthogonalLoop=1;jettySize=auto;html=1;entryX=0.25;entryY=0;entryDx=0;entryDy=0;fillColor=#f8cecc;strokeColor=#b85450;exitX=0.25;exitY=1;exitDx=0;exitDy=0;" edge="1" parent="fRDV0XeKPv1J6HkiKC1O-1" source="H0ET83P_-RouKrvaE45x-3" target="H0ET83P_-RouKrvaE45x-1">
          
          <mxGeometry relative="1" as="geometry" />
          
        </mxCell>
        
        <mxCell id="H0ET83P_-RouKrvaE45x-18" value="2.2请求通道下发(token,msg)" style="edgeLabel;html=1;align=center;verticalAlign=middle;resizable=0;points=[];" vertex="1" connectable="0" parent="H0ET83P_-RouKrvaE45x-17">
          
          <mxGeometry x="-0.3847" y="1" relative="1" as="geometry">
            
            <mxPoint as="offset" />
            
          </mxGeometry>
          
        </mxCell>
        
        <mxCell id="H0ET83P_-RouKrvaE45x-21" style="edgeStyle=none;rounded=0;orthogonalLoop=1;jettySize=auto;html=1;entryX=0.5;entryY=1;entryDx=0;entryDy=0;exitX=0;exitY=0.689;exitDx=0;exitDy=0;exitPerimeter=0;" edge="1" parent="fRDV0XeKPv1J6HkiKC1O-1" source="H0ET83P_-RouKrvaE45x-1" target="H0ET83P_-RouKrvaE45x-7">
          
          <mxGeometry relative="1" as="geometry" />
          
        </mxCell>
        
        <mxCell id="H0ET83P_-RouKrvaE45x-22" value="2.3基于长连接将消息发送到客户端" style="edgeLabel;html=1;align=center;verticalAlign=middle;resizable=0;points=[];" vertex="1" connectable="0" parent="H0ET83P_-RouKrvaE45x-21">
          
          <mxGeometry x="0.1487" relative="1" as="geometry">
            
            <mxPoint as="offset" />
            
          </mxGeometry>
          
        </mxCell>
        
        <mxCell id="H0ET83P_-RouKrvaE45x-23" style="edgeStyle=none;rounded=0;orthogonalLoop=1;jettySize=auto;html=1;exitX=1;exitY=0.25;exitDx=0;exitDy=0;fillColor=#fff2cc;strokeColor=#d6b656;" edge="1" parent="fRDV0XeKPv1J6HkiKC1O-1" source="H0ET83P_-RouKrvaE45x-7" target="H0ET83P_-RouKrvaE45x-3">
          
          <mxGeometry relative="1" as="geometry" />
          
        </mxCell>
        
        <mxCell id="H0ET83P_-RouKrvaE45x-24" value="3.1消息回执上报" style="edgeLabel;html=1;align=center;verticalAlign=middle;resizable=0;points=[];" vertex="1" connectable="0" parent="H0ET83P_-RouKrvaE45x-23">
          
          <mxGeometry x="-0.0474" y="-1" relative="1" as="geometry">
            
            <mxPoint as="offset" />
            
          </mxGeometry>
          
        </mxCell>
        
      </root>
      
    </mxGraphModel>
    
  </diagram>
  <diagram id="nRUWV36_h88AqcKFLzAI" name="推送网关实现">
    
    <mxGraphModel dx="946" dy="524" grid="0" gridSize="10" guides="1" tooltips="1" connect="1" arrows="1" fold="1" page="0" pageScale="1" pageWidth="827" pageHeight="1169" math="0" shadow="0">
      
      <root>
        
        <mxCell id="_167evJI73FkvQBhIOkR-0" />
        
        <mxCell id="_167evJI73FkvQBhIOkR-1" parent="_167evJI73FkvQBhIOkR-0" />
        
        <mxCell id="_167evJI73FkvQBhIOkR-21" value="" style="rounded=0;whiteSpace=wrap;html=1;" vertex="1" parent="_167evJI73FkvQBhIOkR-1">
          
          <mxGeometry x="296.5" y="47" width="144" height="184" as="geometry" />
          
        </mxCell>
        
        <mxCell id="_167evJI73FkvQBhIOkR-3" value="" style="endArrow=classic;html=1;" edge="1" parent="_167evJI73FkvQBhIOkR-1">
          
          <mxGeometry width="50" height="50" relative="1" as="geometry">
            
            <mxPoint x="17" y="234" as="sourcePoint" />
            
            <mxPoint x="140" y="234" as="targetPoint" />
            
          </mxGeometry>
          
        </mxCell>
        
        <mxCell id="_167evJI73FkvQBhIOkR-4" value="" style="endArrow=classic;html=1;" edge="1" parent="_167evJI73FkvQBhIOkR-1">
          
          <mxGeometry width="50" height="50" relative="1" as="geometry">
            
            <mxPoint x="18" y="254" as="sourcePoint" />
            
            <mxPoint x="149" y="254" as="targetPoint" />
            
          </mxGeometry>
          
        </mxCell>
        
        <mxCell id="_167evJI73FkvQBhIOkR-5" value="" style="endArrow=classic;html=1;" edge="1" parent="_167evJI73FkvQBhIOkR-1">
          
          <mxGeometry width="50" height="50" relative="1" as="geometry">
            
            <mxPoint x="18" y="272" as="sourcePoint" />
            
            <mxPoint x="141" y="272" as="targetPoint" />
            
          </mxGeometry>
          
        </mxCell>
        
        <mxCell id="_167evJI73FkvQBhIOkR-7" value="推送请求&lt;br&gt;（uid,src,ptype,msg）" style="text;html=1;strokeColor=none;fillColor=none;align=center;verticalAlign=middle;whiteSpace=wrap;rounded=0;" vertex="1" parent="_167evJI73FkvQBhIOkR-1">
          
          <mxGeometry x="28" y="203" width="107" height="20" as="geometry" />
          
        </mxCell>
        
        <mxCell id="_167evJI73FkvQBhIOkR-13" value="" style="group" vertex="1" connectable="0" parent="_167evJI73FkvQBhIOkR-1">
          
          <mxGeometry x="317" y="80" width="121" height="170" as="geometry" />
          
        </mxCell>
        
        <mxCell id="_167evJI73FkvQBhIOkR-10" value="" style="shape=datastore;whiteSpace=wrap;html=1;rotation=90;" vertex="1" parent="_167evJI73FkvQBhIOkR-13">
          
          <mxGeometry x="35.5" y="-35.5" width="32" height="103" as="geometry" />
          
        </mxCell>
        
        <mxCell id="_167evJI73FkvQBhIOkR-11" value="high topic" style="text;html=1;strokeColor=none;fillColor=none;align=center;verticalAlign=middle;whiteSpace=wrap;rounded=0;" vertex="1" parent="_167evJI73FkvQBhIOkR-13">
          
          <mxGeometry x="19.5" y="6" width="40" height="20" as="geometry" />
          
        </mxCell>
        
        <mxCell id="_167evJI73FkvQBhIOkR-14" value="" style="group" vertex="1" connectable="0" parent="_167evJI73FkvQBhIOkR-1">
          
          <mxGeometry x="317" y="130" width="103" height="32" as="geometry" />
          
        </mxCell>
        
        <mxCell id="_167evJI73FkvQBhIOkR-15" value="" style="shape=datastore;whiteSpace=wrap;html=1;rotation=90;" vertex="1" parent="_167evJI73FkvQBhIOkR-14">
          
          <mxGeometry x="35.5" y="-35.5" width="32" height="103" as="geometry" />
          
        </mxCell>
        
        <mxCell id="_167evJI73FkvQBhIOkR-16" value="normal topic" style="text;html=1;strokeColor=none;fillColor=none;align=center;verticalAlign=middle;whiteSpace=wrap;rounded=0;" vertex="1" parent="_167evJI73FkvQBhIOkR-14">
          
          <mxGeometry x="19.5" y="6" width="40" height="20" as="geometry" />
          
        </mxCell>
        
        <mxCell id="_167evJI73FkvQBhIOkR-17" value="" style="group" vertex="1" connectable="0" parent="_167evJI73FkvQBhIOkR-1">
          
          <mxGeometry x="317" y="181" width="103" height="32" as="geometry" />
          
        </mxCell>
        
        <mxCell id="_167evJI73FkvQBhIOkR-18" value="" style="shape=datastore;whiteSpace=wrap;html=1;rotation=90;" vertex="1" parent="_167evJI73FkvQBhIOkR-17">
          
          <mxGeometry x="35.5" y="-35.5" width="32" height="103" as="geometry" />
          
        </mxCell>
        
        <mxCell id="_167evJI73FkvQBhIOkR-19" value="low topic" style="text;html=1;strokeColor=none;fillColor=none;align=center;verticalAlign=middle;whiteSpace=wrap;rounded=0;" vertex="1" parent="_167evJI73FkvQBhIOkR-17">
          
          <mxGeometry x="19.5" y="6" width="40" height="20" as="geometry" />
          
        </mxCell>
        
        <mxCell id="_167evJI73FkvQBhIOkR-22" value="业务1队列" style="text;html=1;strokeColor=none;fillColor=none;align=center;verticalAlign=middle;whiteSpace=wrap;rounded=0;" vertex="1" parent="_167evJI73FkvQBhIOkR-1">
          
          <mxGeometry x="336.5" y="51" width="64" height="20" as="geometry" />
          
        </mxCell>
        
        <mxCell id="_167evJI73FkvQBhIOkR-61" style="edgeStyle=none;rounded=0;orthogonalLoop=1;jettySize=auto;html=1;exitX=1;exitY=0.5;exitDx=0;exitDy=0;entryX=0.368;entryY=-0.028;entryDx=0;entryDy=0;entryPerimeter=0;" edge="1" parent="_167evJI73FkvQBhIOkR-1" source="_167evJI73FkvQBhIOkR-37" target="_167evJI73FkvQBhIOkR-49">
          
          <mxGeometry relative="1" as="geometry" />
          
        </mxCell>
        
        <mxCell id="_167evJI73FkvQBhIOkR-37" value="high&lt;br&gt;routine pool" style="ellipse;whiteSpace=wrap;html=1;" vertex="1" parent="_167evJI73FkvQBhIOkR-1">
          
          <mxGeometry x="526" y="80" width="92" height="36" as="geometry" />
          
        </mxCell>
        
        <mxCell id="_167evJI73FkvQBhIOkR-40" style="edgeStyle=none;rounded=0;orthogonalLoop=1;jettySize=auto;html=1;exitX=0.5;exitY=0;exitDx=0;exitDy=0;" edge="1" parent="_167evJI73FkvQBhIOkR-1" source="_167evJI73FkvQBhIOkR-10" target="_167evJI73FkvQBhIOkR-37">
          
          <mxGeometry relative="1" as="geometry" />
          
        </mxCell>
        
        <mxCell id="_167evJI73FkvQBhIOkR-94" value="限速消费" style="edgeLabel;html=1;align=center;verticalAlign=middle;resizable=0;points=[];" vertex="1" connectable="0" parent="_167evJI73FkvQBhIOkR-40">
          
          <mxGeometry x="-0.0947" y="1" relative="1" as="geometry">
            
            <mxPoint as="offset" />
            
          </mxGeometry>
          
        </mxCell>
        
        <mxCell id="_167evJI73FkvQBhIOkR-62" style="edgeStyle=none;rounded=0;orthogonalLoop=1;jettySize=auto;html=1;exitX=1;exitY=0.5;exitDx=0;exitDy=0;entryX=0.353;entryY=-0.028;entryDx=0;entryDy=0;entryPerimeter=0;" edge="1" parent="_167evJI73FkvQBhIOkR-1" source="_167evJI73FkvQBhIOkR-41" target="_167evJI73FkvQBhIOkR-49">
          
          <mxGeometry relative="1" as="geometry" />
          
        </mxCell>
        
        <mxCell id="_167evJI73FkvQBhIOkR-41" value="normal&lt;br&gt;&lt;span&gt;routine pool&lt;/span&gt;" style="ellipse;whiteSpace=wrap;html=1;" vertex="1" parent="_167evJI73FkvQBhIOkR-1">
          
          <mxGeometry x="526" y="126" width="92" height="36" as="geometry" />
          
        </mxCell>
        
        <mxCell id="_167evJI73FkvQBhIOkR-63" style="edgeStyle=none;rounded=0;orthogonalLoop=1;jettySize=auto;html=1;exitX=1;exitY=0.5;exitDx=0;exitDy=0;entryX=0.397;entryY=-0.028;entryDx=0;entryDy=0;entryPerimeter=0;" edge="1" parent="_167evJI73FkvQBhIOkR-1" source="_167evJI73FkvQBhIOkR-42" target="_167evJI73FkvQBhIOkR-49">
          
          <mxGeometry relative="1" as="geometry">
            
            <mxPoint x="703" y="195" as="targetPoint" />
            
          </mxGeometry>
          
        </mxCell>
        
        <mxCell id="_167evJI73FkvQBhIOkR-42" value="low&lt;br&gt;&lt;span&gt;routine pool&lt;/span&gt;" style="ellipse;whiteSpace=wrap;html=1;" vertex="1" parent="_167evJI73FkvQBhIOkR-1">
          
          <mxGeometry x="529" y="177" width="92" height="36" as="geometry" />
          
        </mxCell>
        
        <mxCell id="_167evJI73FkvQBhIOkR-43" style="edgeStyle=none;rounded=0;orthogonalLoop=1;jettySize=auto;html=1;exitX=0.5;exitY=0;exitDx=0;exitDy=0;" edge="1" parent="_167evJI73FkvQBhIOkR-1" source="_167evJI73FkvQBhIOkR-15" target="_167evJI73FkvQBhIOkR-41">
          
          <mxGeometry relative="1" as="geometry" />
          
        </mxCell>
        
        <mxCell id="_167evJI73FkvQBhIOkR-95" value="限速消费" style="edgeLabel;html=1;align=center;verticalAlign=middle;resizable=0;points=[];" vertex="1" connectable="0" parent="_167evJI73FkvQBhIOkR-43">
          
          <mxGeometry x="-0.226" y="2" relative="1" as="geometry">
            
            <mxPoint x="8.03" y="0.54" as="offset" />
            
          </mxGeometry>
          
        </mxCell>
        
        <mxCell id="_167evJI73FkvQBhIOkR-44" style="edgeStyle=none;rounded=0;orthogonalLoop=1;jettySize=auto;html=1;exitX=0.5;exitY=0;exitDx=0;exitDy=0;" edge="1" parent="_167evJI73FkvQBhIOkR-1" source="_167evJI73FkvQBhIOkR-18" target="_167evJI73FkvQBhIOkR-42">
          
          <mxGeometry relative="1" as="geometry" />
          
        </mxCell>
        
        <mxCell id="_167evJI73FkvQBhIOkR-96" value="限速消费" style="edgeLabel;html=1;align=center;verticalAlign=middle;resizable=0;points=[];" vertex="1" connectable="0" parent="_167evJI73FkvQBhIOkR-44">
          
          <mxGeometry x="-0.2113" y="-1" relative="1" as="geometry">
            
            <mxPoint x="7.99" y="0.05" as="offset" />
            
          </mxGeometry>
          
        </mxCell>
        
        <mxCell id="_167evJI73FkvQBhIOkR-48" style="edgeStyle=none;rounded=0;orthogonalLoop=1;jettySize=auto;html=1;exitX=0.5;exitY=0;exitDx=0;exitDy=0;exitPerimeter=0;entryX=0;entryY=0.5;entryDx=0;entryDy=0;" edge="1" parent="_167evJI73FkvQBhIOkR-1" source="_167evJI73FkvQBhIOkR-46" target="_167evJI73FkvQBhIOkR-21">
          
          <mxGeometry relative="1" as="geometry" />
          
        </mxCell>
        
        <mxCell id="_167evJI73FkvQBhIOkR-88" style="edgeStyle=none;rounded=0;orthogonalLoop=1;jettySize=auto;html=1;exitX=0.5;exitY=1;exitDx=0;exitDy=0;exitPerimeter=0;entryX=0;entryY=0.5;entryDx=0;entryDy=0;" edge="1" parent="_167evJI73FkvQBhIOkR-1" source="_167evJI73FkvQBhIOkR-46" target="_167evJI73FkvQBhIOkR-64">
          
          <mxGeometry relative="1" as="geometry" />
          
        </mxCell>
        
        <mxCell id="_167evJI73FkvQBhIOkR-46" value="队列路由" style="strokeWidth=2;html=1;shape=mxgraph.flowchart.decision;whiteSpace=wrap;" vertex="1" parent="_167evJI73FkvQBhIOkR-1">
          
          <mxGeometry x="175" y="232" width="100" height="71" as="geometry" />
          
        </mxCell>
        
        <mxCell id="_167evJI73FkvQBhIOkR-47" value="" style="strokeWidth=2;html=1;shape=mxgraph.flowchart.annotation_1;align=left;pointerEvents=1;" vertex="1" parent="_167evJI73FkvQBhIOkR-1">
          
          <mxGeometry x="158" y="30" width="15" height="466" as="geometry" />
          
        </mxCell>
        
        <mxCell id="_167evJI73FkvQBhIOkR-49" value="" style="rounded=1;whiteSpace=wrap;html=1;absoluteArcSize=1;arcSize=14;strokeWidth=2;" vertex="1" parent="_167evJI73FkvQBhIOkR-1">
          
          <mxGeometry x="678" y="203" width="68" height="141" as="geometry" />
          
        </mxCell>
        
        <mxCell id="_167evJI73FkvQBhIOkR-50" value="消息&lt;br&gt;执行器" style="text;html=1;strokeColor=none;fillColor=none;align=center;verticalAlign=middle;whiteSpace=wrap;rounded=0;" vertex="1" parent="_167evJI73FkvQBhIOkR-1">
          
          <mxGeometry x="688" y="208" width="40" height="20" as="geometry" />
          
        </mxCell>
        
        <mxCell id="_167evJI73FkvQBhIOkR-57" style="edgeStyle=none;rounded=0;orthogonalLoop=1;jettySize=auto;html=1;exitX=1;exitY=0.5;exitDx=0;exitDy=0;exitPerimeter=0;entryX=0;entryY=0.5;entryDx=0;entryDy=0;" edge="1" parent="_167evJI73FkvQBhIOkR-1" source="_167evJI73FkvQBhIOkR-51" target="_167evJI73FkvQBhIOkR-53">
          
          <mxGeometry relative="1" as="geometry" />
          
        </mxCell>
        
        <mxCell id="_167evJI73FkvQBhIOkR-58" style="edgeStyle=none;rounded=0;orthogonalLoop=1;jettySize=auto;html=1;exitX=1;exitY=0.5;exitDx=0;exitDy=0;exitPerimeter=0;entryX=0;entryY=0.5;entryDx=0;entryDy=0;" edge="1" parent="_167evJI73FkvQBhIOkR-1" source="_167evJI73FkvQBhIOkR-51" target="_167evJI73FkvQBhIOkR-54">
          
          <mxGeometry relative="1" as="geometry" />
          
        </mxCell>
        
        <mxCell id="_167evJI73FkvQBhIOkR-59" style="edgeStyle=none;rounded=0;orthogonalLoop=1;jettySize=auto;html=1;exitX=1;exitY=0.5;exitDx=0;exitDy=0;exitPerimeter=0;entryX=0;entryY=0.5;entryDx=0;entryDy=0;" edge="1" parent="_167evJI73FkvQBhIOkR-1" source="_167evJI73FkvQBhIOkR-51" target="_167evJI73FkvQBhIOkR-55">
          
          <mxGeometry relative="1" as="geometry" />
          
        </mxCell>
        
        <mxCell id="_167evJI73FkvQBhIOkR-60" style="edgeStyle=none;rounded=0;orthogonalLoop=1;jettySize=auto;html=1;exitX=1;exitY=0.5;exitDx=0;exitDy=0;exitPerimeter=0;entryX=0;entryY=0.5;entryDx=0;entryDy=0;" edge="1" parent="_167evJI73FkvQBhIOkR-1" source="_167evJI73FkvQBhIOkR-51" target="_167evJI73FkvQBhIOkR-56">
          
          <mxGeometry relative="1" as="geometry" />
          
        </mxCell>
        
        <mxCell id="_167evJI73FkvQBhIOkR-51" value="推送路由" style="strokeWidth=2;html=1;shape=mxgraph.flowchart.decision;whiteSpace=wrap;" vertex="1" parent="_167evJI73FkvQBhIOkR-1">
          
          <mxGeometry x="683.5" y="264" width="57" height="48" as="geometry" />
          
        </mxCell>
        
        <mxCell id="_167evJI73FkvQBhIOkR-52" value="" style="strokeWidth=2;html=1;shape=mxgraph.flowchart.annotation_1;align=left;pointerEvents=1;rotation=-180;" vertex="1" parent="_167evJI73FkvQBhIOkR-1">
          
          <mxGeometry x="765" y="30" width="15" height="449" as="geometry" />
          
        </mxCell>
        
        <mxCell id="_167evJI73FkvQBhIOkR-53" value="pushpicturebook" style="rounded=1;whiteSpace=wrap;html=1;" vertex="1" parent="_167evJI73FkvQBhIOkR-1">
          
          <mxGeometry x="808" y="160" width="112" height="34" as="geometry" />
          
        </mxCell>
        
        <mxCell id="_167evJI73FkvQBhIOkR-54" value="pushkid" style="rounded=1;whiteSpace=wrap;html=1;" vertex="1" parent="_167evJI73FkvQBhIOkR-1">
          
          <mxGeometry x="810" y="236" width="112" height="34" as="geometry" />
          
        </mxCell>
        
        <mxCell id="_167evJI73FkvQBhIOkR-55" value="pushrtc" style="rounded=1;whiteSpace=wrap;html=1;" vertex="1" parent="_167evJI73FkvQBhIOkR-1">
          
          <mxGeometry x="812" y="306" width="112" height="34" as="geometry" />
          
        </mxCell>
        
        <mxCell id="_167evJI73FkvQBhIOkR-56" value="push..." style="rounded=1;whiteSpace=wrap;html=1;" vertex="1" parent="_167evJI73FkvQBhIOkR-1">
          
          <mxGeometry x="812" y="370" width="112" height="34" as="geometry" />
          
        </mxCell>
        
        <mxCell id="_167evJI73FkvQBhIOkR-64" value="" style="rounded=0;whiteSpace=wrap;html=1;" vertex="1" parent="_167evJI73FkvQBhIOkR-1">
          
          <mxGeometry x="296.5" y="300" width="144" height="184" as="geometry" />
          
        </mxCell>
        
        <mxCell id="_167evJI73FkvQBhIOkR-65" value="" style="group" vertex="1" connectable="0" parent="_167evJI73FkvQBhIOkR-1">
          
          <mxGeometry x="317" y="333" width="121" height="170" as="geometry" />
          
        </mxCell>
        
        <mxCell id="_167evJI73FkvQBhIOkR-66" value="" style="shape=datastore;whiteSpace=wrap;html=1;rotation=90;" vertex="1" parent="_167evJI73FkvQBhIOkR-65">
          
          <mxGeometry x="35.5" y="-35.5" width="32" height="103" as="geometry" />
          
        </mxCell>
        
        <mxCell id="_167evJI73FkvQBhIOkR-67" value="high topic" style="text;html=1;strokeColor=none;fillColor=none;align=center;verticalAlign=middle;whiteSpace=wrap;rounded=0;" vertex="1" parent="_167evJI73FkvQBhIOkR-65">
          
          <mxGeometry x="19.5" y="6" width="40" height="20" as="geometry" />
          
        </mxCell>
        
        <mxCell id="_167evJI73FkvQBhIOkR-68" value="" style="group" vertex="1" connectable="0" parent="_167evJI73FkvQBhIOkR-1">
          
          <mxGeometry x="317" y="383" width="103" height="32" as="geometry" />
          
        </mxCell>
        
        <mxCell id="_167evJI73FkvQBhIOkR-69" value="" style="shape=datastore;whiteSpace=wrap;html=1;rotation=90;" vertex="1" parent="_167evJI73FkvQBhIOkR-68">
          
          <mxGeometry x="35.5" y="-35.5" width="32" height="103" as="geometry" />
          
        </mxCell>
        
        <mxCell id="_167evJI73FkvQBhIOkR-70" value="normal topic" style="text;html=1;strokeColor=none;fillColor=none;align=center;verticalAlign=middle;whiteSpace=wrap;rounded=0;" vertex="1" parent="_167evJI73FkvQBhIOkR-68">
          
          <mxGeometry x="19.5" y="6" width="40" height="20" as="geometry" />
          
        </mxCell>
        
        <mxCell id="_167evJI73FkvQBhIOkR-71" value="" style="group" vertex="1" connectable="0" parent="_167evJI73FkvQBhIOkR-1">
          
          <mxGeometry x="317" y="434" width="103" height="32" as="geometry" />
          
        </mxCell>
        
        <mxCell id="_167evJI73FkvQBhIOkR-72" value="" style="shape=datastore;whiteSpace=wrap;html=1;rotation=90;" vertex="1" parent="_167evJI73FkvQBhIOkR-71">
          
          <mxGeometry x="35.5" y="-35.5" width="32" height="103" as="geometry" />
          
        </mxCell>
        
        <mxCell id="_167evJI73FkvQBhIOkR-73" value="low topic" style="text;html=1;strokeColor=none;fillColor=none;align=center;verticalAlign=middle;whiteSpace=wrap;rounded=0;" vertex="1" parent="_167evJI73FkvQBhIOkR-71">
          
          <mxGeometry x="19.5" y="6" width="40" height="20" as="geometry" />
          
        </mxCell>
        
        <mxCell id="_167evJI73FkvQBhIOkR-74" value="业务2队列" style="text;html=1;strokeColor=none;fillColor=none;align=center;verticalAlign=middle;whiteSpace=wrap;rounded=0;" vertex="1" parent="_167evJI73FkvQBhIOkR-1">
          
          <mxGeometry x="336.5" y="304" width="64" height="20" as="geometry" />
          
        </mxCell>
        
        <mxCell id="_167evJI73FkvQBhIOkR-75" style="edgeStyle=none;rounded=0;orthogonalLoop=1;jettySize=auto;html=1;exitX=1;exitY=0.5;exitDx=0;exitDy=0;entryX=0.5;entryY=1;entryDx=0;entryDy=0;" edge="1" parent="_167evJI73FkvQBhIOkR-1" source="_167evJI73FkvQBhIOkR-76" target="_167evJI73FkvQBhIOkR-49">
          
          <mxGeometry relative="1" as="geometry">
            
            <mxPoint x="678" y="385" as="targetPoint" />
            
          </mxGeometry>
          
        </mxCell>
        
        <mxCell id="_167evJI73FkvQBhIOkR-76" value="high&lt;br&gt;routine pool" style="ellipse;whiteSpace=wrap;html=1;" vertex="1" parent="_167evJI73FkvQBhIOkR-1">
          
          <mxGeometry x="526" y="333" width="92" height="36" as="geometry" />
          
        </mxCell>
        
        <mxCell id="_167evJI73FkvQBhIOkR-77" style="edgeStyle=none;rounded=0;orthogonalLoop=1;jettySize=auto;html=1;exitX=0.5;exitY=0;exitDx=0;exitDy=0;" edge="1" parent="_167evJI73FkvQBhIOkR-1" source="_167evJI73FkvQBhIOkR-66" target="_167evJI73FkvQBhIOkR-76">
          
          <mxGeometry relative="1" as="geometry" />
          
        </mxCell>
        
        <mxCell id="_167evJI73FkvQBhIOkR-97" value="限速消费" style="edgeLabel;html=1;align=center;verticalAlign=middle;resizable=0;points=[];" vertex="1" connectable="0" parent="_167evJI73FkvQBhIOkR-77">
          
          <mxGeometry x="-0.0379" relative="1" as="geometry">
            
            <mxPoint as="offset" />
            
          </mxGeometry>
          
        </mxCell>
        
        <mxCell id="_167evJI73FkvQBhIOkR-78" style="edgeStyle=none;rounded=0;orthogonalLoop=1;jettySize=auto;html=1;exitX=1;exitY=0.5;exitDx=0;exitDy=0;entryX=0.5;entryY=1;entryDx=0;entryDy=0;" edge="1" parent="_167evJI73FkvQBhIOkR-1" source="_167evJI73FkvQBhIOkR-79" target="_167evJI73FkvQBhIOkR-49">
          
          <mxGeometry relative="1" as="geometry">
            
            <mxPoint x="678" y="385" as="targetPoint" />
            
          </mxGeometry>
          
        </mxCell>
        
        <mxCell id="_167evJI73FkvQBhIOkR-79" value="normal&lt;br&gt;&lt;span&gt;routine pool&lt;/span&gt;" style="ellipse;whiteSpace=wrap;html=1;" vertex="1" parent="_167evJI73FkvQBhIOkR-1">
          
          <mxGeometry x="526" y="379" width="92" height="36" as="geometry" />
          
        </mxCell>
        
        <mxCell id="_167evJI73FkvQBhIOkR-80" style="edgeStyle=none;rounded=0;orthogonalLoop=1;jettySize=auto;html=1;exitX=1;exitY=0.5;exitDx=0;exitDy=0;entryX=0.5;entryY=1;entryDx=0;entryDy=0;" edge="1" parent="_167evJI73FkvQBhIOkR-1" source="_167evJI73FkvQBhIOkR-81" target="_167evJI73FkvQBhIOkR-49">
          
          <mxGeometry relative="1" as="geometry">
            
            <mxPoint x="678" y="385" as="targetPoint" />
            
          </mxGeometry>
          
        </mxCell>
        
        <mxCell id="_167evJI73FkvQBhIOkR-81" value="low&lt;br&gt;&lt;span&gt;routine pool&lt;/span&gt;" style="ellipse;whiteSpace=wrap;html=1;" vertex="1" parent="_167evJI73FkvQBhIOkR-1">
          
          <mxGeometry x="529" y="430" width="92" height="36" as="geometry" />
          
        </mxCell>
        
        <mxCell id="_167evJI73FkvQBhIOkR-82" style="edgeStyle=none;rounded=0;orthogonalLoop=1;jettySize=auto;html=1;exitX=0.5;exitY=0;exitDx=0;exitDy=0;" edge="1" parent="_167evJI73FkvQBhIOkR-1" source="_167evJI73FkvQBhIOkR-69" target="_167evJI73FkvQBhIOkR-79">
          
          <mxGeometry relative="1" as="geometry" />
          
        </mxCell>
        
        <mxCell id="_167evJI73FkvQBhIOkR-98" value="限速消费" style="edgeLabel;html=1;align=center;verticalAlign=middle;resizable=0;points=[];" vertex="1" connectable="0" parent="_167evJI73FkvQBhIOkR-82">
          
          <mxGeometry x="-0.2079" y="-1" relative="1" as="geometry">
            
            <mxPoint x="7.99" y="-0.45" as="offset" />
            
          </mxGeometry>
          
        </mxCell>
        
        <mxCell id="_167evJI73FkvQBhIOkR-83" style="edgeStyle=none;rounded=0;orthogonalLoop=1;jettySize=auto;html=1;exitX=0.5;exitY=0;exitDx=0;exitDy=0;" edge="1" parent="_167evJI73FkvQBhIOkR-1" source="_167evJI73FkvQBhIOkR-72" target="_167evJI73FkvQBhIOkR-81">
          
          <mxGeometry relative="1" as="geometry" />
          
        </mxCell>
        
        <mxCell id="_167evJI73FkvQBhIOkR-99" value="限速消费" style="edgeLabel;html=1;align=center;verticalAlign=middle;resizable=0;points=[];" vertex="1" connectable="0" parent="_167evJI73FkvQBhIOkR-83">
          
          <mxGeometry x="-0.1377" relative="1" as="geometry">
            
            <mxPoint x="4" y="-1.39" as="offset" />
            
          </mxGeometry>
          
        </mxCell>
        
      </root>
      
    </mxGraphModel>
    
  </diagram>
  <diagram id="vI7WTgKBJ_mIyGKyhFNS" name="推送实现">
    
    <mxGraphModel dx="1513" dy="613" grid="0" gridSize="10" guides="1" tooltips="1" connect="1" arrows="1" fold="1" page="0" pageScale="1" pageWidth="827" pageHeight="1169" math="0" shadow="0">
      
      <root>
        
        <mxCell id="6zhHXNrFhYMKChzCQ_a1-0" />
        
        <mxCell id="6zhHXNrFhYMKChzCQ_a1-1" parent="6zhHXNrFhYMKChzCQ_a1-0" />
        
        <mxCell id="s9zN31DH2r4-Wa5S8OY2-28" style="edgeStyle=none;rounded=0;orthogonalLoop=1;jettySize=auto;html=1;" edge="1" parent="6zhHXNrFhYMKChzCQ_a1-1" source="s9zN31DH2r4-Wa5S8OY2-22" target="s9zN31DH2r4-Wa5S8OY2-23">
          
          <mxGeometry relative="1" as="geometry" />
          
        </mxCell>
        
        <mxCell id="s9zN31DH2r4-Wa5S8OY2-22" value="DB添加/更新&lt;br&gt;绑定信息" style="rounded=1;whiteSpace=wrap;html=1;" vertex="1" parent="6zhHXNrFhYMKChzCQ_a1-1">
          
          <mxGeometry x="292" y="27" width="120" height="60" as="geometry" />
          
        </mxCell>
        
        <mxCell id="s9zN31DH2r4-Wa5S8OY2-29" style="edgeStyle=none;rounded=0;orthogonalLoop=1;jettySize=auto;html=1;" edge="1" parent="6zhHXNrFhYMKChzCQ_a1-1" source="s9zN31DH2r4-Wa5S8OY2-23" target="s9zN31DH2r4-Wa5S8OY2-25">
          
          <mxGeometry relative="1" as="geometry" />
          
        </mxCell>
        
        <mxCell id="s9zN31DH2r4-Wa5S8OY2-23" value="删除缓存" style="rounded=1;whiteSpace=wrap;html=1;" vertex="1" parent="6zhHXNrFhYMKChzCQ_a1-1">
          
          <mxGeometry x="483" y="29" width="120" height="60" as="geometry" />
          
        </mxCell>
        
        <mxCell id="s9zN31DH2r4-Wa5S8OY2-26" style="edgeStyle=none;rounded=0;orthogonalLoop=1;jettySize=auto;html=1;" edge="1" parent="6zhHXNrFhYMKChzCQ_a1-1" source="s9zN31DH2r4-Wa5S8OY2-24" target="s9zN31DH2r4-Wa5S8OY2-22">
          
          <mxGeometry relative="1" as="geometry" />
          
        </mxCell>
        
        <mxCell id="s9zN31DH2r4-Wa5S8OY2-27" value="&lt;span style=&quot;font-size: 12px ; background-color: rgb(248 , 249 , 250)&quot;&gt;收到绑定请求&lt;/span&gt;&lt;br style=&quot;font-size: 12px ; background-color: rgb(248 , 249 , 250)&quot;&gt;&lt;span style=&quot;font-size: 12px ; background-color: rgb(248 , 249 , 250)&quot;&gt;（uid,src,token,ttype）&lt;/span&gt;" style="edgeLabel;html=1;align=center;verticalAlign=middle;resizable=0;points=[];" vertex="1" connectable="0" parent="s9zN31DH2r4-Wa5S8OY2-26">
          
          <mxGeometry x="0.0958" y="-1" relative="1" as="geometry">
            
            <mxPoint x="-16" y="0.03" as="offset" />
            
          </mxGeometry>
          
        </mxCell>
        
        <mxCell id="s9zN31DH2r4-Wa5S8OY2-24" value="开始" style="strokeWidth=2;html=1;shape=mxgraph.flowchart.start_1;whiteSpace=wrap;" vertex="1" parent="6zhHXNrFhYMKChzCQ_a1-1">
          
          <mxGeometry x="-15" y="29" width="100" height="60" as="geometry" />
          
        </mxCell>
        
        <mxCell id="s9zN31DH2r4-Wa5S8OY2-25" value="结束" style="strokeWidth=2;html=1;shape=mxgraph.flowchart.start_1;whiteSpace=wrap;" vertex="1" parent="6zhHXNrFhYMKChzCQ_a1-1">
          
          <mxGeometry x="667" y="29" width="100" height="60" as="geometry" />
          
        </mxCell>
        
        <mxCell id="s9zN31DH2r4-Wa5S8OY2-31" style="edgeStyle=none;rounded=0;orthogonalLoop=1;jettySize=auto;html=1;entryX=0;entryY=0.5;entryDx=0;entryDy=0;entryPerimeter=0;" edge="1" parent="6zhHXNrFhYMKChzCQ_a1-1" source="s9zN31DH2r4-Wa5S8OY2-32" target="s9zN31DH2r4-Wa5S8OY2-49">
          
          <mxGeometry relative="1" as="geometry">
            
            <mxPoint x="453.4145077720209" y="340.95721997667033" as="targetPoint" />
            
          </mxGeometry>
          
        </mxCell>
        
        <mxCell id="s9zN31DH2r4-Wa5S8OY2-32" value="根据ptype获取&lt;br&gt;推送通道信息" style="rounded=1;whiteSpace=wrap;html=1;" vertex="1" parent="6zhHXNrFhYMKChzCQ_a1-1">
          
          <mxGeometry x="302" y="310" width="120" height="60" as="geometry" />
          
        </mxCell>
        
        <mxCell id="s9zN31DH2r4-Wa5S8OY2-35" style="edgeStyle=none;rounded=0;orthogonalLoop=1;jettySize=auto;html=1;" edge="1" parent="6zhHXNrFhYMKChzCQ_a1-1" source="s9zN31DH2r4-Wa5S8OY2-37" target="s9zN31DH2r4-Wa5S8OY2-32">
          
          <mxGeometry relative="1" as="geometry" />
          
        </mxCell>
        
        <mxCell id="s9zN31DH2r4-Wa5S8OY2-36" value="&lt;span style=&quot;font-size: 12px ; background-color: rgb(248 , 249 , 250)&quot;&gt;收到推送请求&lt;/span&gt;&lt;br style=&quot;font-size: 12px ; background-color: rgb(248 , 249 , 250)&quot;&gt;&lt;span style=&quot;font-size: 12px ; background-color: rgb(248 , 249 , 250)&quot;&gt;（uid,src,ptype,msg）&lt;/span&gt;" style="edgeLabel;html=1;align=center;verticalAlign=middle;resizable=0;points=[];" vertex="1" connectable="0" parent="s9zN31DH2r4-Wa5S8OY2-35">
          
          <mxGeometry x="0.0958" y="-1" relative="1" as="geometry">
            
            <mxPoint x="-16" y="0.03" as="offset" />
            
          </mxGeometry>
          
        </mxCell>
        
        <mxCell id="s9zN31DH2r4-Wa5S8OY2-37" value="开始" style="strokeWidth=2;html=1;shape=mxgraph.flowchart.start_1;whiteSpace=wrap;" vertex="1" parent="6zhHXNrFhYMKChzCQ_a1-1">
          
          <mxGeometry x="-5" y="312" width="100" height="60" as="geometry" />
          
        </mxCell>
        
        <mxCell id="s9zN31DH2r4-Wa5S8OY2-58" style="edgeStyle=none;rounded=0;orthogonalLoop=1;jettySize=auto;html=1;" edge="1" parent="6zhHXNrFhYMKChzCQ_a1-1" source="s9zN31DH2r4-Wa5S8OY2-40" target="s9zN31DH2r4-Wa5S8OY2-41">
          
          <mxGeometry relative="1" as="geometry" />
          
        </mxCell>
        
        <mxCell id="s9zN31DH2r4-Wa5S8OY2-40" value="组装推送通道参数" style="rounded=1;whiteSpace=wrap;html=1;" vertex="1" parent="6zhHXNrFhYMKChzCQ_a1-1">
          
          <mxGeometry x="662" y="255" width="120" height="60" as="geometry" />
          
        </mxCell>
        
        <mxCell id="s9zN31DH2r4-Wa5S8OY2-41" value="调用推送通道发送" style="rounded=1;whiteSpace=wrap;html=1;" vertex="1" parent="6zhHXNrFhYMKChzCQ_a1-1">
          
          <mxGeometry x="821" y="255" width="120" height="60" as="geometry" />
          
        </mxCell>
        
        <mxCell id="s9zN31DH2r4-Wa5S8OY2-49" value="" style="strokeWidth=2;html=1;shape=mxgraph.flowchart.annotation_1;align=left;pointerEvents=1;" vertex="1" parent="6zhHXNrFhYMKChzCQ_a1-1">
          
          <mxGeometry x="466" y="239.5" width="29" height="201" as="geometry" />
          
        </mxCell>
        
        <mxCell id="s9zN31DH2r4-Wa5S8OY2-61" style="edgeStyle=none;rounded=0;orthogonalLoop=1;jettySize=auto;html=1;" edge="1" parent="6zhHXNrFhYMKChzCQ_a1-1" source="s9zN31DH2r4-Wa5S8OY2-51" target="s9zN31DH2r4-Wa5S8OY2-54">
          
          <mxGeometry relative="1" as="geometry" />
          
        </mxCell>
        
        <mxCell id="s9zN31DH2r4-Wa5S8OY2-51" value="" style="strokeWidth=2;html=1;shape=mxgraph.flowchart.annotation_1;align=left;pointerEvents=1;rotation=-180;" vertex="1" parent="6zhHXNrFhYMKChzCQ_a1-1">
          
          <mxGeometry x="941" y="233" width="29" height="207.5" as="geometry" />
          
        </mxCell>
        
        <mxCell id="s9zN31DH2r4-Wa5S8OY2-60" style="edgeStyle=none;rounded=0;orthogonalLoop=1;jettySize=auto;html=1;" edge="1" parent="6zhHXNrFhYMKChzCQ_a1-1" source="s9zN31DH2r4-Wa5S8OY2-52" target="s9zN31DH2r4-Wa5S8OY2-53">
          
          <mxGeometry relative="1" as="geometry" />
          
        </mxCell>
        
        <mxCell id="s9zN31DH2r4-Wa5S8OY2-52" value="组装自建长连接参数" style="rounded=1;whiteSpace=wrap;html=1;" vertex="1" parent="6zhHXNrFhYMKChzCQ_a1-1">
          
          <mxGeometry x="662" y="340" width="120" height="60" as="geometry" />
          
        </mxCell>
        
        <mxCell id="s9zN31DH2r4-Wa5S8OY2-53" value="调用自建长连接发送" style="rounded=1;whiteSpace=wrap;html=1;" vertex="1" parent="6zhHXNrFhYMKChzCQ_a1-1">
          
          <mxGeometry x="821" y="343" width="120" height="60" as="geometry" />
          
        </mxCell>
        
        <mxCell id="s9zN31DH2r4-Wa5S8OY2-54" value="结束" style="strokeWidth=2;html=1;shape=mxgraph.flowchart.start_1;whiteSpace=wrap;" vertex="1" parent="6zhHXNrFhYMKChzCQ_a1-1">
          
          <mxGeometry x="1006" y="304" width="100" height="60" as="geometry" />
          
        </mxCell>
        
        <mxCell id="s9zN31DH2r4-Wa5S8OY2-57" style="edgeStyle=none;rounded=0;orthogonalLoop=1;jettySize=auto;html=1;" edge="1" parent="6zhHXNrFhYMKChzCQ_a1-1" source="s9zN31DH2r4-Wa5S8OY2-55" target="s9zN31DH2r4-Wa5S8OY2-40">
          
          <mxGeometry relative="1" as="geometry" />
          
        </mxCell>
        
        <mxCell id="s9zN31DH2r4-Wa5S8OY2-55" value="获取推送通道token&lt;br&gt;（先缓存后db）" style="rounded=1;whiteSpace=wrap;html=1;" vertex="1" parent="6zhHXNrFhYMKChzCQ_a1-1">
          
          <mxGeometry x="502" y="255" width="120" height="60" as="geometry" />
          
        </mxCell>
        
        <mxCell id="s9zN31DH2r4-Wa5S8OY2-59" style="edgeStyle=none;rounded=0;orthogonalLoop=1;jettySize=auto;html=1;" edge="1" parent="6zhHXNrFhYMKChzCQ_a1-1" source="s9zN31DH2r4-Wa5S8OY2-56" target="s9zN31DH2r4-Wa5S8OY2-52">
          
          <mxGeometry relative="1" as="geometry" />
          
        </mxCell>
        
        <mxCell id="s9zN31DH2r4-Wa5S8OY2-56" value="获取长连接token&lt;br&gt;（先缓存后db）" style="rounded=1;whiteSpace=wrap;html=1;" vertex="1" parent="6zhHXNrFhYMKChzCQ_a1-1">
          
          <mxGeometry x="504" y="340" width="120" height="60" as="geometry" />
          
        </mxCell>
        
      </root>
      
    </mxGraphModel>
    
  </diagram>
  <diagram id="ZBq2-sGlHCP06Uhiw72J" name="账号合并-小程序授权手机号登录流程">
    <mxGraphModel dx="1369" dy="330" grid="0" gridSize="10" guides="1" tooltips="1" connect="1" arrows="1" fold="1" page="0" pageScale="1" pageWidth="827" pageHeight="1169" math="0" shadow="0">
      <root>
        <mxCell id="-3KIhQR8wO0zfP08Nj25-0" />
        <mxCell id="-3KIhQR8wO0zfP08Nj25-1" parent="-3KIhQR8wO0zfP08Nj25-0" />
        <mxCell id="-3KIhQR8wO0zfP08Nj25-4" value="确认授权" style="edgeStyle=orthogonalEdgeStyle;rounded=0;orthogonalLoop=1;jettySize=auto;html=1;" edge="1" parent="-3KIhQR8wO0zfP08Nj25-1" source="-3KIhQR8wO0zfP08Nj25-2" target="-3KIhQR8wO0zfP08Nj25-3">
          <mxGeometry relative="1" as="geometry" />
        </mxCell>
        <mxCell id="-3KIhQR8wO0zfP08Nj25-2" value="开始" style="ellipse;whiteSpace=wrap;html=1;" vertex="1" parent="-3KIhQR8wO0zfP08Nj25-1">
          <mxGeometry x="358" y="669" width="120" height="80" as="geometry" />
        </mxCell>
        <mxCell id="-3KIhQR8wO0zfP08Nj25-3" value="获取微信uninoid&amp;amp;手机号" style="rounded=0;whiteSpace=wrap;html=1;" vertex="1" parent="-3KIhQR8wO0zfP08Nj25-1">
          <mxGeometry x="358" y="819" width="120" height="60" as="geometry" />
        </mxCell>
        <mxCell id="-3KIhQR8wO0zfP08Nj25-5" value="小程序授权手机号是以手机号账号为主" style="text;html=1;strokeColor=none;fillColor=none;align=left;verticalAlign=middle;whiteSpace=wrap;rounded=0;" vertex="1" parent="-3KIhQR8wO0zfP08Nj25-1">
          <mxGeometry x="503" y="626" width="233" height="83" as="geometry" />
        </mxCell>
        <mxCell id="xyV25j-cdWsyQOqGSef--20" value="" style="edgeStyle=orthogonalEdgeStyle;rounded=0;orthogonalLoop=1;jettySize=auto;html=1;" edge="1" parent="-3KIhQR8wO0zfP08Nj25-1" source="TQ5-4JFHTj1GkyjqvTYk-1" target="xyV25j-cdWsyQOqGSef--19">
          <mxGeometry relative="1" as="geometry">
            <mxPoint x="493" y="1057" as="sourcePoint" />
          </mxGeometry>
        </mxCell>
        <mxCell id="xyV25j-cdWsyQOqGSef--21" value="是" style="edgeLabel;html=1;align=center;verticalAlign=middle;resizable=0;points=[];" vertex="1" connectable="0" parent="xyV25j-cdWsyQOqGSef--20">
          <mxGeometry x="-0.4354" y="2" relative="1" as="geometry">
            <mxPoint y="1" as="offset" />
          </mxGeometry>
        </mxCell>
        <mxCell id="-3KIhQR8wO0zfP08Nj25-62" style="edgeStyle=orthogonalEdgeStyle;rounded=0;orthogonalLoop=1;jettySize=auto;html=1;entryX=0;entryY=0.5;entryDx=0;entryDy=0;" edge="1" parent="-3KIhQR8wO0zfP08Nj25-1" source="-3KIhQR8wO0zfP08Nj25-3" target="xyV25j-cdWsyQOqGSef--3">
          <mxGeometry relative="1" as="geometry">
            <mxPoint x="765" y="849" as="sourcePoint" />
            <mxPoint x="453" y="1017" as="targetPoint" />
          </mxGeometry>
        </mxCell>
        <mxCell id="xyV25j-cdWsyQOqGSef--9" style="edgeStyle=orthogonalEdgeStyle;rounded=0;orthogonalLoop=1;jettySize=auto;html=1;" edge="1" parent="-3KIhQR8wO0zfP08Nj25-1" source="xyV25j-cdWsyQOqGSef--3" target="2GCsm41Z8LRVuwahh4-G-0">
          <mxGeometry relative="1" as="geometry" />
        </mxCell>
        <mxCell id="xyV25j-cdWsyQOqGSef--10" value="是" style="edgeLabel;html=1;align=center;verticalAlign=middle;resizable=0;points=[];" vertex="1" connectable="0" parent="xyV25j-cdWsyQOqGSef--9">
          <mxGeometry x="-0.1268" y="-2" relative="1" as="geometry">
            <mxPoint x="1" as="offset" />
          </mxGeometry>
        </mxCell>
        <mxCell id="TQ5-4JFHTj1GkyjqvTYk-25" value="" style="edgeStyle=orthogonalEdgeStyle;rounded=0;orthogonalLoop=1;jettySize=auto;html=1;" edge="1" parent="-3KIhQR8wO0zfP08Nj25-1" source="xyV25j-cdWsyQOqGSef--3" target="TQ5-4JFHTj1GkyjqvTYk-24">
          <mxGeometry relative="1" as="geometry" />
        </mxCell>
        <mxCell id="TQ5-4JFHTj1GkyjqvTYk-26" value="否" style="edgeLabel;html=1;align=center;verticalAlign=middle;resizable=0;points=[];" vertex="1" connectable="0" parent="TQ5-4JFHTj1GkyjqvTYk-25">
          <mxGeometry x="0.1111" y="4" relative="1" as="geometry">
            <mxPoint x="-4" y="-4" as="offset" />
          </mxGeometry>
        </mxCell>
        <mxCell id="xyV25j-cdWsyQOqGSef--3" value="手机存在uid" style="rhombus;whiteSpace=wrap;html=1;align=center;" vertex="1" parent="-3KIhQR8wO0zfP08Nj25-1">
          <mxGeometry x="576" y="809" width="80" height="80" as="geometry" />
        </mxCell>
        <mxCell id="xyV25j-cdWsyQOqGSef--16" style="edgeStyle=orthogonalEdgeStyle;rounded=0;orthogonalLoop=1;jettySize=auto;html=1;" edge="1" parent="-3KIhQR8wO0zfP08Nj25-1" source="xyV25j-cdWsyQOqGSef--6" target="TQ5-4JFHTj1GkyjqvTYk-0">
          <mxGeometry relative="1" as="geometry" />
        </mxCell>
        <mxCell id="xyV25j-cdWsyQOqGSef--17" value="是" style="edgeLabel;html=1;align=center;verticalAlign=middle;resizable=0;points=[];" vertex="1" connectable="0" parent="xyV25j-cdWsyQOqGSef--16">
          <mxGeometry x="-0.7966" y="3" relative="1" as="geometry">
            <mxPoint y="-1" as="offset" />
          </mxGeometry>
        </mxCell>
        <mxCell id="TQ5-4JFHTj1GkyjqvTYk-2" style="edgeStyle=orthogonalEdgeStyle;rounded=0;orthogonalLoop=1;jettySize=auto;html=1;" edge="1" parent="-3KIhQR8wO0zfP08Nj25-1" source="xyV25j-cdWsyQOqGSef--6" target="TQ5-4JFHTj1GkyjqvTYk-1">
          <mxGeometry relative="1" as="geometry" />
        </mxCell>
        <mxCell id="TQ5-4JFHTj1GkyjqvTYk-3" value="否" style="edgeLabel;html=1;align=center;verticalAlign=middle;resizable=0;points=[];" vertex="1" connectable="0" parent="TQ5-4JFHTj1GkyjqvTYk-2">
          <mxGeometry x="-0.1489" relative="1" as="geometry">
            <mxPoint as="offset" />
          </mxGeometry>
        </mxCell>
        <mxCell id="xyV25j-cdWsyQOqGSef--6" value="手机已绑定微信" style="rhombus;whiteSpace=wrap;html=1;align=center;" vertex="1" parent="-3KIhQR8wO0zfP08Nj25-1">
          <mxGeometry x="896" y="811" width="80" height="80" as="geometry" />
        </mxCell>
        <mxCell id="TQ5-4JFHTj1GkyjqvTYk-6" style="edgeStyle=orthogonalEdgeStyle;rounded=0;orthogonalLoop=1;jettySize=auto;html=1;" edge="1" parent="-3KIhQR8wO0zfP08Nj25-1" source="xyV25j-cdWsyQOqGSef--11" target="TQ5-4JFHTj1GkyjqvTYk-0">
          <mxGeometry relative="1" as="geometry" />
        </mxCell>
        <mxCell id="xyV25j-cdWsyQOqGSef--11" value="微信绑定到手机uid" style="rounded=0;whiteSpace=wrap;html=1;align=center;" vertex="1" parent="-3KIhQR8wO0zfP08Nj25-1">
          <mxGeometry x="1061" y="948" width="120" height="60" as="geometry" />
        </mxCell>
        <mxCell id="xyV25j-cdWsyQOqGSef--23" value="" style="edgeStyle=orthogonalEdgeStyle;rounded=0;orthogonalLoop=1;jettySize=auto;html=1;" edge="1" parent="-3KIhQR8wO0zfP08Nj25-1" source="xyV25j-cdWsyQOqGSef--19" target="TQ5-4JFHTj1GkyjqvTYk-7">
          <mxGeometry relative="1" as="geometry">
            <mxPoint x="1223" y="1111" as="targetPoint" />
          </mxGeometry>
        </mxCell>
        <mxCell id="TQ5-4JFHTj1GkyjqvTYk-9" value="是" style="edgeLabel;html=1;align=center;verticalAlign=middle;resizable=0;points=[];" vertex="1" connectable="0" parent="xyV25j-cdWsyQOqGSef--23">
          <mxGeometry x="-0.1957" y="1" relative="1" as="geometry">
            <mxPoint as="offset" />
          </mxGeometry>
        </mxCell>
        <mxCell id="TQ5-4JFHTj1GkyjqvTYk-11" value="" style="edgeStyle=orthogonalEdgeStyle;rounded=0;orthogonalLoop=1;jettySize=auto;html=1;" edge="1" parent="-3KIhQR8wO0zfP08Nj25-1" source="xyV25j-cdWsyQOqGSef--19" target="TQ5-4JFHTj1GkyjqvTYk-10">
          <mxGeometry relative="1" as="geometry" />
        </mxCell>
        <mxCell id="TQ5-4JFHTj1GkyjqvTYk-14" value="否" style="edgeLabel;html=1;align=center;verticalAlign=middle;resizable=0;points=[];" vertex="1" connectable="0" parent="TQ5-4JFHTj1GkyjqvTYk-11">
          <mxGeometry x="-0.6087" y="1" relative="1" as="geometry">
            <mxPoint as="offset" />
          </mxGeometry>
        </mxCell>
        <mxCell id="xyV25j-cdWsyQOqGSef--19" value="微信绑定了手机" style="rhombus;whiteSpace=wrap;html=1;align=center;" vertex="1" parent="-3KIhQR8wO0zfP08Nj25-1">
          <mxGeometry x="896" y="1071" width="80" height="80" as="geometry" />
        </mxCell>
        <mxCell id="2GCsm41Z8LRVuwahh4-G-1" value="" style="edgeStyle=orthogonalEdgeStyle;rounded=0;orthogonalLoop=1;jettySize=auto;html=1;" edge="1" parent="-3KIhQR8wO0zfP08Nj25-1" source="2GCsm41Z8LRVuwahh4-G-0" target="xyV25j-cdWsyQOqGSef--6">
          <mxGeometry relative="1" as="geometry" />
        </mxCell>
        <mxCell id="2GCsm41Z8LRVuwahh4-G-0" value="手机号登录" style="rounded=0;whiteSpace=wrap;html=1;align=center;" vertex="1" parent="-3KIhQR8wO0zfP08Nj25-1">
          <mxGeometry x="713" y="821" width="120" height="60" as="geometry" />
        </mxCell>
        <mxCell id="TQ5-4JFHTj1GkyjqvTYk-0" value="执行登录并返回&lt;br&gt;（是否已绑定手机号；是否新用户；微信用户是否存在；微信用户是否绑定了手机号；用户信息；token信息）" style="rounded=0;whiteSpace=wrap;html=1;align=center;fillColor=#f5f5f5;strokeColor=#666666;fontColor=#333333;" vertex="1" parent="-3KIhQR8wO0zfP08Nj25-1">
          <mxGeometry x="1148" y="801.5" width="149" height="99" as="geometry" />
        </mxCell>
        <mxCell id="TQ5-4JFHTj1GkyjqvTYk-4" style="edgeStyle=orthogonalEdgeStyle;rounded=0;orthogonalLoop=1;jettySize=auto;html=1;" edge="1" parent="-3KIhQR8wO0zfP08Nj25-1" source="TQ5-4JFHTj1GkyjqvTYk-1" target="xyV25j-cdWsyQOqGSef--11">
          <mxGeometry relative="1" as="geometry" />
        </mxCell>
        <mxCell id="TQ5-4JFHTj1GkyjqvTYk-5" value="否" style="edgeLabel;html=1;align=center;verticalAlign=middle;resizable=0;points=[];" vertex="1" connectable="0" parent="TQ5-4JFHTj1GkyjqvTYk-4">
          <mxGeometry x="-0.1059" y="1" relative="1" as="geometry">
            <mxPoint as="offset" />
          </mxGeometry>
        </mxCell>
        <mxCell id="TQ5-4JFHTj1GkyjqvTYk-1" value="微信存在uid" style="rhombus;whiteSpace=wrap;html=1;align=center;" vertex="1" parent="-3KIhQR8wO0zfP08Nj25-1">
          <mxGeometry x="896" y="938" width="80" height="80" as="geometry" />
        </mxCell>
        <mxCell id="TQ5-4JFHTj1GkyjqvTYk-8" style="edgeStyle=orthogonalEdgeStyle;rounded=0;orthogonalLoop=1;jettySize=auto;html=1;" edge="1" parent="-3KIhQR8wO0zfP08Nj25-1" source="TQ5-4JFHTj1GkyjqvTYk-7" target="TQ5-4JFHTj1GkyjqvTYk-0">
          <mxGeometry relative="1" as="geometry" />
        </mxCell>
        <mxCell id="TQ5-4JFHTj1GkyjqvTYk-7" value="什么都不做&lt;br&gt;使用传入的手机登录" style="rounded=0;whiteSpace=wrap;html=1;align=center;" vertex="1" parent="-3KIhQR8wO0zfP08Nj25-1">
          <mxGeometry x="1162.5" y="1081" width="120" height="60" as="geometry" />
        </mxCell>
        <mxCell id="TQ5-4JFHTj1GkyjqvTYk-12" style="edgeStyle=orthogonalEdgeStyle;rounded=0;orthogonalLoop=1;jettySize=auto;html=1;" edge="1" parent="-3KIhQR8wO0zfP08Nj25-1" source="TQ5-4JFHTj1GkyjqvTYk-10" target="TQ5-4JFHTj1GkyjqvTYk-7">
          <mxGeometry relative="1" as="geometry" />
        </mxCell>
        <mxCell id="TQ5-4JFHTj1GkyjqvTYk-13" value="是" style="edgeLabel;html=1;align=center;verticalAlign=middle;resizable=0;points=[];" vertex="1" connectable="0" parent="TQ5-4JFHTj1GkyjqvTYk-12">
          <mxGeometry x="-0.619" y="1" relative="1" as="geometry">
            <mxPoint as="offset" />
          </mxGeometry>
        </mxCell>
        <mxCell id="TQ5-4JFHTj1GkyjqvTYk-17" style="edgeStyle=orthogonalEdgeStyle;rounded=0;orthogonalLoop=1;jettySize=auto;html=1;" edge="1" parent="-3KIhQR8wO0zfP08Nj25-1" source="TQ5-4JFHTj1GkyjqvTYk-10" target="TQ5-4JFHTj1GkyjqvTYk-16">
          <mxGeometry relative="1" as="geometry" />
        </mxCell>
        <mxCell id="TQ5-4JFHTj1GkyjqvTYk-19" value="否" style="edgeLabel;html=1;align=center;verticalAlign=middle;resizable=0;points=[];" vertex="1" connectable="0" parent="TQ5-4JFHTj1GkyjqvTYk-17">
          <mxGeometry x="0.0244" y="-7" relative="1" as="geometry">
            <mxPoint x="8" y="-7" as="offset" />
          </mxGeometry>
        </mxCell>
        <mxCell id="TQ5-4JFHTj1GkyjqvTYk-10" value="微信有资产" style="rhombus;whiteSpace=wrap;html=1;align=center;" vertex="1" parent="-3KIhQR8wO0zfP08Nj25-1">
          <mxGeometry x="896" y="1197" width="80" height="80" as="geometry" />
        </mxCell>
        <mxCell id="TQ5-4JFHTj1GkyjqvTYk-18" style="edgeStyle=orthogonalEdgeStyle;rounded=0;orthogonalLoop=1;jettySize=auto;html=1;entryX=0.993;entryY=0.399;entryDx=0;entryDy=0;entryPerimeter=0;" edge="1" parent="-3KIhQR8wO0zfP08Nj25-1" source="TQ5-4JFHTj1GkyjqvTYk-16" target="TQ5-4JFHTj1GkyjqvTYk-0">
          <mxGeometry relative="1" as="geometry" />
        </mxCell>
        <mxCell id="TQ5-4JFHTj1GkyjqvTYk-16" value="微信绑定到手机uid" style="rounded=0;whiteSpace=wrap;html=1;align=center;" vertex="1" parent="-3KIhQR8wO0zfP08Nj25-1">
          <mxGeometry x="876" y="1316" width="120" height="60" as="geometry" />
        </mxCell>
        <mxCell id="TQ5-4JFHTj1GkyjqvTYk-22" value="" style="endArrow=classic;html=1;" edge="1" parent="-3KIhQR8wO0zfP08Nj25-1">
          <mxGeometry width="50" height="50" relative="1" as="geometry">
            <mxPoint x="1020" y="1052" as="sourcePoint" />
            <mxPoint x="941" y="1052" as="targetPoint" />
          </mxGeometry>
        </mxCell>
        <mxCell id="TQ5-4JFHTj1GkyjqvTYk-23" value="自动合并才往下走" style="edgeLabel;html=1;align=center;verticalAlign=middle;resizable=0;points=[];" vertex="1" connectable="0" parent="TQ5-4JFHTj1GkyjqvTYk-22">
          <mxGeometry x="-0.2658" y="-4" relative="1" as="geometry">
            <mxPoint x="32" y="4" as="offset" />
          </mxGeometry>
        </mxCell>
        <mxCell id="TQ5-4JFHTj1GkyjqvTYk-29" value="" style="edgeStyle=orthogonalEdgeStyle;rounded=0;orthogonalLoop=1;jettySize=auto;html=1;" edge="1" parent="-3KIhQR8wO0zfP08Nj25-1" source="TQ5-4JFHTj1GkyjqvTYk-24" target="p0Yx79pHaYxsfON-N2ig-0">
          <mxGeometry relative="1" as="geometry">
            <mxPoint x="768" y="1047" as="targetPoint" />
          </mxGeometry>
        </mxCell>
        <mxCell id="7Epy7To04BMmgxJxopKt-0" value="是" style="edgeLabel;html=1;align=center;verticalAlign=middle;resizable=0;points=[];" vertex="1" connectable="0" parent="TQ5-4JFHTj1GkyjqvTYk-29">
          <mxGeometry x="-0.129" y="2" relative="1" as="geometry">
            <mxPoint x="-1" as="offset" />
          </mxGeometry>
        </mxCell>
        <mxCell id="TQ5-4JFHTj1GkyjqvTYk-32" value="" style="edgeStyle=orthogonalEdgeStyle;rounded=0;orthogonalLoop=1;jettySize=auto;html=1;" edge="1" parent="-3KIhQR8wO0zfP08Nj25-1" source="TQ5-4JFHTj1GkyjqvTYk-24" target="TQ5-4JFHTj1GkyjqvTYk-31">
          <mxGeometry relative="1" as="geometry" />
        </mxCell>
        <mxCell id="7Epy7To04BMmgxJxopKt-1" value="否" style="edgeLabel;html=1;align=center;verticalAlign=middle;resizable=0;points=[];" vertex="1" connectable="0" parent="TQ5-4JFHTj1GkyjqvTYk-32">
          <mxGeometry x="-0.1923" y="-2" relative="1" as="geometry">
            <mxPoint y="-1" as="offset" />
          </mxGeometry>
        </mxCell>
        <mxCell id="TQ5-4JFHTj1GkyjqvTYk-24" value="微信存在uid" style="rhombus;whiteSpace=wrap;html=1;align=center;" vertex="1" parent="-3KIhQR8wO0zfP08Nj25-1">
          <mxGeometry x="576" y="924" width="80" height="80" as="geometry" />
        </mxCell>
        <mxCell id="TQ5-4JFHTj1GkyjqvTYk-27" value="执行登录并返回&lt;br&gt;（是否已绑定手机号；是否新用户；微信用户是否存在；微信用户是否绑定了手机号；用户信息；token信息）" style="rounded=0;whiteSpace=wrap;html=1;align=center;fillColor=#f5f5f5;strokeColor=#666666;fontColor=#333333;" vertex="1" parent="-3KIhQR8wO0zfP08Nj25-1">
          <mxGeometry x="462" y="1253" width="149" height="99" as="geometry" />
        </mxCell>
        <mxCell id="TQ5-4JFHTj1GkyjqvTYk-33" style="edgeStyle=orthogonalEdgeStyle;rounded=0;orthogonalLoop=1;jettySize=auto;html=1;" edge="1" parent="-3KIhQR8wO0zfP08Nj25-1" source="TQ5-4JFHTj1GkyjqvTYk-31" target="TQ5-4JFHTj1GkyjqvTYk-27">
          <mxGeometry relative="1" as="geometry" />
        </mxCell>
        <mxCell id="TQ5-4JFHTj1GkyjqvTYk-31" value="注册手机号，并绑定微信" style="rounded=0;whiteSpace=wrap;html=1;align=center;" vertex="1" parent="-3KIhQR8wO0zfP08Nj25-1">
          <mxGeometry x="395" y="1027" width="120" height="60" as="geometry" />
        </mxCell>
        <mxCell id="TQ5-4JFHTj1GkyjqvTYk-35" style="edgeStyle=orthogonalEdgeStyle;rounded=0;orthogonalLoop=1;jettySize=auto;html=1;" edge="1" parent="-3KIhQR8wO0zfP08Nj25-1" source="TQ5-4JFHTj1GkyjqvTYk-34" target="TQ5-4JFHTj1GkyjqvTYk-27">
          <mxGeometry relative="1" as="geometry" />
        </mxCell>
        <mxCell id="TQ5-4JFHTj1GkyjqvTYk-34" value="手机绑定到微信uid" style="rounded=0;whiteSpace=wrap;html=1;align=center;" vertex="1" parent="-3KIhQR8wO0zfP08Nj25-1">
          <mxGeometry x="614" y="1141" width="120" height="60" as="geometry" />
        </mxCell>
        <mxCell id="p0Yx79pHaYxsfON-N2ig-1" style="edgeStyle=orthogonalEdgeStyle;rounded=0;orthogonalLoop=1;jettySize=auto;html=1;" edge="1" parent="-3KIhQR8wO0zfP08Nj25-1" source="p0Yx79pHaYxsfON-N2ig-0" target="TQ5-4JFHTj1GkyjqvTYk-34">
          <mxGeometry relative="1" as="geometry" />
        </mxCell>
        <mxCell id="p0Yx79pHaYxsfON-N2ig-2" value="否" style="edgeLabel;html=1;align=center;verticalAlign=middle;resizable=0;points=[];" vertex="1" connectable="0" parent="p0Yx79pHaYxsfON-N2ig-1">
          <mxGeometry x="-0.3925" y="-28" relative="1" as="geometry">
            <mxPoint x="-60" y="19.86" as="offset" />
          </mxGeometry>
        </mxCell>
        <mxCell id="p0Yx79pHaYxsfON-N2ig-4" style="edgeStyle=orthogonalEdgeStyle;rounded=0;orthogonalLoop=1;jettySize=auto;html=1;" edge="1" parent="-3KIhQR8wO0zfP08Nj25-1" source="p0Yx79pHaYxsfON-N2ig-0" target="p0Yx79pHaYxsfON-N2ig-3">
          <mxGeometry relative="1" as="geometry" />
        </mxCell>
        <mxCell id="p0Yx79pHaYxsfON-N2ig-5" value="是" style="edgeLabel;html=1;align=center;verticalAlign=middle;resizable=0;points=[];" vertex="1" connectable="0" parent="p0Yx79pHaYxsfON-N2ig-4">
          <mxGeometry x="0.4006" y="-2" relative="1" as="geometry">
            <mxPoint x="2" y="10.29" as="offset" />
          </mxGeometry>
        </mxCell>
        <mxCell id="p0Yx79pHaYxsfON-N2ig-0" value="微信绑定了手机" style="rhombus;whiteSpace=wrap;html=1;align=center;" vertex="1" parent="-3KIhQR8wO0zfP08Nj25-1">
          <mxGeometry x="719" y="924" width="80" height="80" as="geometry" />
        </mxCell>
        <mxCell id="p0Yx79pHaYxsfON-N2ig-6" style="edgeStyle=orthogonalEdgeStyle;rounded=0;orthogonalLoop=1;jettySize=auto;html=1;entryX=1;entryY=0.5;entryDx=0;entryDy=0;" edge="1" parent="-3KIhQR8wO0zfP08Nj25-1" source="p0Yx79pHaYxsfON-N2ig-3" target="TQ5-4JFHTj1GkyjqvTYk-27">
          <mxGeometry relative="1" as="geometry">
            <Array as="points">
              <mxPoint x="816" y="1303" />
            </Array>
          </mxGeometry>
        </mxCell>
        <mxCell id="p0Yx79pHaYxsfON-N2ig-3" value="手机号注册" style="rounded=0;whiteSpace=wrap;html=1;align=center;" vertex="1" parent="-3KIhQR8wO0zfP08Nj25-1">
          <mxGeometry x="756" y="1141" width="120" height="60" as="geometry" />
        </mxCell>
      </root>
    </mxGraphModel>
  </diagram>
  <diagram name="账号合并-app&amp;第三方登录" id="KdKsqrCh9WBRCOxGacOy">
    <mxGraphModel dx="1742" dy="529" grid="0" gridSize="10" guides="1" tooltips="1" connect="1" arrows="1" fold="1" page="0" pageScale="1" pageWidth="827" pageHeight="1169" math="0" shadow="0">
      <root>
        <mxCell id="rwIOBKhuii3uQe7zAAyL-0" />
        <mxCell id="rwIOBKhuii3uQe7zAAyL-1" parent="rwIOBKhuii3uQe7zAAyL-0" />
        <mxCell id="rwIOBKhuii3uQe7zAAyL-2" value="确认授权" style="edgeStyle=orthogonalEdgeStyle;rounded=0;orthogonalLoop=1;jettySize=auto;html=1;" edge="1" parent="rwIOBKhuii3uQe7zAAyL-1" source="rwIOBKhuii3uQe7zAAyL-3" target="rwIOBKhuii3uQe7zAAyL-6">
          <mxGeometry relative="1" as="geometry" />
        </mxCell>
        <mxCell id="rwIOBKhuii3uQe7zAAyL-3" value="开始" style="ellipse;whiteSpace=wrap;html=1;" vertex="1" parent="rwIOBKhuii3uQe7zAAyL-1">
          <mxGeometry x="358" y="669" width="120" height="80" as="geometry" />
        </mxCell>
        <mxCell id="rwIOBKhuii3uQe7zAAyL-4" value="" style="edgeStyle=orthogonalEdgeStyle;rounded=0;orthogonalLoop=1;jettySize=auto;html=1;" edge="1" parent="rwIOBKhuii3uQe7zAAyL-1" source="rwIOBKhuii3uQe7zAAyL-6" target="rwIOBKhuii3uQe7zAAyL-10">
          <mxGeometry relative="1" as="geometry" />
        </mxCell>
        <mxCell id="rwIOBKhuii3uQe7zAAyL-6" value="获取微信uninoid" style="rounded=0;whiteSpace=wrap;html=1;" vertex="1" parent="rwIOBKhuii3uQe7zAAyL-1">
          <mxGeometry x="358" y="819" width="120" height="60" as="geometry" />
        </mxCell>
        <mxCell id="rwIOBKhuii3uQe7zAAyL-7" value="1、accessToken（App中第三方登录），需要改成临时码授权&lt;br&gt;2、临时码&lt;br&gt;其他参数：&lt;br&gt;1、新微信是否创建新账号" style="text;html=1;strokeColor=none;fillColor=none;align=left;verticalAlign=middle;whiteSpace=wrap;rounded=0;" vertex="1" parent="rwIOBKhuii3uQe7zAAyL-1">
          <mxGeometry x="527" y="746" width="233" height="83" as="geometry" />
        </mxCell>
        <mxCell id="rwIOBKhuii3uQe7zAAyL-8" value="" style="edgeStyle=orthogonalEdgeStyle;rounded=0;orthogonalLoop=1;jettySize=auto;html=1;" edge="1" parent="rwIOBKhuii3uQe7zAAyL-1" source="rwIOBKhuii3uQe7zAAyL-10" target="rwIOBKhuii3uQe7zAAyL-15">
          <mxGeometry relative="1" as="geometry" />
        </mxCell>
        <mxCell id="rwIOBKhuii3uQe7zAAyL-9" value="否" style="edgeLabel;html=1;align=center;verticalAlign=middle;resizable=0;points=[];" vertex="1" connectable="0" parent="rwIOBKhuii3uQe7zAAyL-8">
          <mxGeometry x="0.3425" y="1" relative="1" as="geometry">
            <mxPoint as="offset" />
          </mxGeometry>
        </mxCell>
        <mxCell id="rwIOBKhuii3uQe7zAAyL-10" value="是否有uid" style="rhombus;whiteSpace=wrap;html=1;align=center;" vertex="1" parent="rwIOBKhuii3uQe7zAAyL-1">
          <mxGeometry x="378" y="1074" width="80" height="80" as="geometry" />
        </mxCell>
        <mxCell id="rwIOBKhuii3uQe7zAAyL-11" value="" style="edgeStyle=orthogonalEdgeStyle;rounded=0;orthogonalLoop=1;jettySize=auto;html=1;" edge="1" parent="rwIOBKhuii3uQe7zAAyL-1" source="rwIOBKhuii3uQe7zAAyL-15" target="rwIOBKhuii3uQe7zAAyL-20">
          <mxGeometry relative="1" as="geometry">
            <mxPoint x="687" y="954" as="targetPoint" />
          </mxGeometry>
        </mxCell>
        <mxCell id="rwIOBKhuii3uQe7zAAyL-12" value="是" style="edgeLabel;html=1;align=center;verticalAlign=middle;resizable=0;points=[];" vertex="1" connectable="0" parent="rwIOBKhuii3uQe7zAAyL-11">
          <mxGeometry x="-0.2" y="-2" relative="1" as="geometry">
            <mxPoint as="offset" />
          </mxGeometry>
        </mxCell>
        <mxCell id="rwIOBKhuii3uQe7zAAyL-13" value="" style="edgeStyle=orthogonalEdgeStyle;rounded=0;orthogonalLoop=1;jettySize=auto;html=1;" edge="1" parent="rwIOBKhuii3uQe7zAAyL-1" source="rwIOBKhuii3uQe7zAAyL-15" target="rwIOBKhuii3uQe7zAAyL-24">
          <mxGeometry relative="1" as="geometry" />
        </mxCell>
        <mxCell id="rwIOBKhuii3uQe7zAAyL-14" value="否" style="edgeLabel;html=1;align=center;verticalAlign=middle;resizable=0;points=[];" vertex="1" connectable="0" parent="rwIOBKhuii3uQe7zAAyL-13">
          <mxGeometry x="-0.0545" y="-1" relative="1" as="geometry">
            <mxPoint as="offset" />
          </mxGeometry>
        </mxCell>
        <mxCell id="rwIOBKhuii3uQe7zAAyL-15" value="是否创建新账号" style="rhombus;whiteSpace=wrap;html=1;align=center;" vertex="1" parent="rwIOBKhuii3uQe7zAAyL-1">
          <mxGeometry x="516" y="1074" width="80" height="80" as="geometry" />
        </mxCell>
        <mxCell id="rwIOBKhuii3uQe7zAAyL-16" value="" style="edgeStyle=orthogonalEdgeStyle;rounded=0;orthogonalLoop=1;jettySize=auto;html=1;exitX=0.5;exitY=1;exitDx=0;exitDy=0;entryX=0;entryY=0.5;entryDx=0;entryDy=0;" edge="1" parent="rwIOBKhuii3uQe7zAAyL-1" source="rwIOBKhuii3uQe7zAAyL-10" target="rwIOBKhuii3uQe7zAAyL-18">
          <mxGeometry relative="1" as="geometry">
            <mxPoint x="456" y="1092" as="sourcePoint" />
            <mxPoint x="536" y="1092" as="targetPoint" />
          </mxGeometry>
        </mxCell>
        <mxCell id="rwIOBKhuii3uQe7zAAyL-17" value="是" style="edgeLabel;html=1;align=center;verticalAlign=middle;resizable=0;points=[];" vertex="1" connectable="0" parent="rwIOBKhuii3uQe7zAAyL-16">
          <mxGeometry x="-0.2596" relative="1" as="geometry">
            <mxPoint as="offset" />
          </mxGeometry>
        </mxCell>
        <mxCell id="dm2gYgl93w5YnRJRNPYd-1" value="" style="edgeStyle=orthogonalEdgeStyle;rounded=0;orthogonalLoop=1;jettySize=auto;html=1;dashed=1;entryX=0.5;entryY=0;entryDx=0;entryDy=0;" edge="1" parent="rwIOBKhuii3uQe7zAAyL-1" source="rwIOBKhuii3uQe7zAAyL-18" target="dm2gYgl93w5YnRJRNPYd-2">
          <mxGeometry relative="1" as="geometry">
            <mxPoint x="556" y="1576" as="targetPoint" />
          </mxGeometry>
        </mxCell>
        <mxCell id="rwIOBKhuii3uQe7zAAyL-18" value="执行登录并返回&lt;br&gt;（是否已绑定手机号；是否新用户；微信用户是否存在；微信用户是否绑定了手机号；用户信息；token信息）" style="rounded=0;whiteSpace=wrap;html=1;align=center;fillColor=#f5f5f5;strokeColor=#666666;fontColor=#333333;" vertex="1" parent="rwIOBKhuii3uQe7zAAyL-1">
          <mxGeometry x="481.5" y="1318" width="149" height="99" as="geometry" />
        </mxCell>
        <mxCell id="rwIOBKhuii3uQe7zAAyL-19" value="" style="edgeStyle=orthogonalEdgeStyle;rounded=0;orthogonalLoop=1;jettySize=auto;html=1;" edge="1" parent="rwIOBKhuii3uQe7zAAyL-1" source="rwIOBKhuii3uQe7zAAyL-20" target="rwIOBKhuii3uQe7zAAyL-18">
          <mxGeometry relative="1" as="geometry" />
        </mxCell>
        <mxCell id="rwIOBKhuii3uQe7zAAyL-20" value="注册新uid" style="rounded=0;whiteSpace=wrap;html=1;align=center;" vertex="1" parent="rwIOBKhuii3uQe7zAAyL-1">
          <mxGeometry x="496" y="1209" width="120" height="60" as="geometry" />
        </mxCell>
        <mxCell id="rwIOBKhuii3uQe7zAAyL-23" value="" style="edgeStyle=orthogonalEdgeStyle;rounded=0;orthogonalLoop=1;jettySize=auto;html=1;dashed=1;" edge="1" parent="rwIOBKhuii3uQe7zAAyL-1" source="rwIOBKhuii3uQe7zAAyL-24" target="rwIOBKhuii3uQe7zAAyL-29">
          <mxGeometry relative="1" as="geometry" />
        </mxCell>
        <mxCell id="rwIOBKhuii3uQe7zAAyL-24" value="返回uninonid" style="rounded=0;whiteSpace=wrap;html=1;align=center;fillColor=#f5f5f5;strokeColor=#666666;fontColor=#333333;" vertex="1" parent="rwIOBKhuii3uQe7zAAyL-1">
          <mxGeometry x="488" y="943" width="136" height="74" as="geometry" />
        </mxCell>
        <mxCell id="rwIOBKhuii3uQe7zAAyL-25" value="不需要登录态的业务操作" style="rounded=0;whiteSpace=wrap;html=1;align=center;fillColor=#f5f5f5;strokeColor=#666666;fontColor=#333333;" vertex="1" parent="rwIOBKhuii3uQe7zAAyL-1">
          <mxGeometry x="660" y="1074" width="120" height="60" as="geometry" />
        </mxCell>
        <mxCell id="rwIOBKhuii3uQe7zAAyL-26" value="" style="edgeStyle=orthogonalEdgeStyle;rounded=0;orthogonalLoop=1;jettySize=auto;html=1;" edge="1" parent="rwIOBKhuii3uQe7zAAyL-1" source="rwIOBKhuii3uQe7zAAyL-29" target="rwIOBKhuii3uQe7zAAyL-25">
          <mxGeometry relative="1" as="geometry" />
        </mxCell>
        <mxCell id="rwIOBKhuii3uQe7zAAyL-27" value="否" style="edgeLabel;html=1;align=center;verticalAlign=middle;resizable=0;points=[];" vertex="1" connectable="0" parent="rwIOBKhuii3uQe7zAAyL-26">
          <mxGeometry x="0.2917" y="1" relative="1" as="geometry">
            <mxPoint as="offset" />
          </mxGeometry>
        </mxCell>
        <mxCell id="rwIOBKhuii3uQe7zAAyL-28" value="是" style="edgeStyle=orthogonalEdgeStyle;rounded=0;orthogonalLoop=1;jettySize=auto;html=1;entryX=0;entryY=0.5;entryDx=0;entryDy=0;" edge="1" parent="rwIOBKhuii3uQe7zAAyL-1" source="rwIOBKhuii3uQe7zAAyL-29" target="rwIOBKhuii3uQe7zAAyL-77">
          <mxGeometry relative="1" as="geometry">
            <mxPoint x="949" y="829" as="targetPoint" />
          </mxGeometry>
        </mxCell>
        <mxCell id="rwIOBKhuii3uQe7zAAyL-29" value="是否需要登录态" style="rhombus;whiteSpace=wrap;html=1;align=center;" vertex="1" parent="rwIOBKhuii3uQe7zAAyL-1">
          <mxGeometry x="680" y="940" width="80" height="80" as="geometry" />
        </mxCell>
        <mxCell id="rwIOBKhuii3uQe7zAAyL-30" value="" style="edgeStyle=orthogonalEdgeStyle;rounded=0;orthogonalLoop=1;jettySize=auto;html=1;dashed=1;" edge="1" parent="rwIOBKhuii3uQe7zAAyL-1" source="rwIOBKhuii3uQe7zAAyL-31" target="rwIOBKhuii3uQe7zAAyL-98">
          <mxGeometry relative="1" as="geometry">
            <mxPoint x="1114.5" y="879" as="targetPoint" />
          </mxGeometry>
        </mxCell>
        <mxCell id="rwIOBKhuii3uQe7zAAyL-31" value="绑定页面（手机号+验证码）" style="rounded=0;whiteSpace=wrap;html=1;align=center;" vertex="1" parent="rwIOBKhuii3uQe7zAAyL-1">
          <mxGeometry x="971" y="950" width="120" height="60" as="geometry" />
        </mxCell>
        <mxCell id="rwIOBKhuii3uQe7zAAyL-34" value="" style="edgeStyle=orthogonalEdgeStyle;rounded=0;orthogonalLoop=1;jettySize=auto;html=1;" edge="1" parent="rwIOBKhuii3uQe7zAAyL-1" source="rwIOBKhuii3uQe7zAAyL-36" target="rwIOBKhuii3uQe7zAAyL-94">
          <mxGeometry relative="1" as="geometry" />
        </mxCell>
        <mxCell id="rwIOBKhuii3uQe7zAAyL-35" value="是" style="edgeLabel;html=1;align=center;verticalAlign=middle;resizable=0;points=[];" vertex="1" connectable="0" parent="rwIOBKhuii3uQe7zAAyL-34">
          <mxGeometry x="-0.4354" y="2" relative="1" as="geometry">
            <mxPoint y="1" as="offset" />
          </mxGeometry>
        </mxCell>
        <mxCell id="Lf6Y1JVFcwCP0ejmNtgy-2" value="这种case正常不应该有" style="edgeLabel;html=1;align=center;verticalAlign=middle;resizable=0;points=[];" vertex="1" connectable="0" parent="rwIOBKhuii3uQe7zAAyL-34">
          <mxGeometry x="0.2917" y="-2" relative="1" as="geometry">
            <mxPoint as="offset" />
          </mxGeometry>
        </mxCell>
        <mxCell id="rwIOBKhuii3uQe7zAAyL-36" value="微信存在uid" style="rhombus;whiteSpace=wrap;html=1;align=center;" vertex="1" parent="rwIOBKhuii3uQe7zAAyL-1">
          <mxGeometry x="1183" y="809" width="80" height="80" as="geometry" />
        </mxCell>
        <mxCell id="rwIOBKhuii3uQe7zAAyL-39" value="是" style="edgeStyle=orthogonalEdgeStyle;rounded=0;orthogonalLoop=1;jettySize=auto;html=1;entryX=1;entryY=0.5;entryDx=0;entryDy=0;" edge="1" parent="rwIOBKhuii3uQe7zAAyL-1" source="rwIOBKhuii3uQe7zAAyL-40" target="Lf6Y1JVFcwCP0ejmNtgy-9">
          <mxGeometry relative="1" as="geometry">
            <mxPoint x="1940" y="657" as="targetPoint" />
          </mxGeometry>
        </mxCell>
        <mxCell id="Lf6Y1JVFcwCP0ejmNtgy-17" style="edgeStyle=orthogonalEdgeStyle;rounded=0;orthogonalLoop=1;jettySize=auto;html=1;exitX=0.5;exitY=1;exitDx=0;exitDy=0;" edge="1" parent="rwIOBKhuii3uQe7zAAyL-1" source="rwIOBKhuii3uQe7zAAyL-40" target="rwIOBKhuii3uQe7zAAyL-51">
          <mxGeometry relative="1" as="geometry">
            <Array as="points">
              <mxPoint x="1426" y="1144" />
              <mxPoint x="1578" y="1144" />
            </Array>
          </mxGeometry>
        </mxCell>
        <mxCell id="Lf6Y1JVFcwCP0ejmNtgy-18" value="否" style="edgeLabel;html=1;align=center;verticalAlign=middle;resizable=0;points=[];" vertex="1" connectable="0" parent="Lf6Y1JVFcwCP0ejmNtgy-17">
          <mxGeometry x="-0.1319" y="3" relative="1" as="geometry">
            <mxPoint as="offset" />
          </mxGeometry>
        </mxCell>
        <mxCell id="rwIOBKhuii3uQe7zAAyL-40" value="unionid和手机是一个uid" style="rhombus;whiteSpace=wrap;html=1;align=center;" vertex="1" parent="rwIOBKhuii3uQe7zAAyL-1">
          <mxGeometry x="1386" y="1044" width="80" height="80" as="geometry" />
        </mxCell>
        <mxCell id="rwIOBKhuii3uQe7zAAyL-41" value="" style="edgeStyle=orthogonalEdgeStyle;rounded=0;orthogonalLoop=1;jettySize=auto;html=1;entryX=0.5;entryY=1;entryDx=0;entryDy=0;" edge="1" parent="rwIOBKhuii3uQe7zAAyL-1" source="rwIOBKhuii3uQe7zAAyL-36" target="rwIOBKhuii3uQe7zAAyL-85">
          <mxGeometry relative="1" as="geometry">
            <mxPoint x="1304" y="1124" as="sourcePoint" />
          </mxGeometry>
        </mxCell>
        <mxCell id="rwIOBKhuii3uQe7zAAyL-42" value="否" style="edgeLabel;html=1;align=center;verticalAlign=middle;resizable=0;points=[];" vertex="1" connectable="0" parent="rwIOBKhuii3uQe7zAAyL-41">
          <mxGeometry y="1" relative="1" as="geometry">
            <mxPoint as="offset" />
          </mxGeometry>
        </mxCell>
        <mxCell id="Lf6Y1JVFcwCP0ejmNtgy-10" style="edgeStyle=orthogonalEdgeStyle;rounded=0;orthogonalLoop=1;jettySize=auto;html=1;" edge="1" parent="rwIOBKhuii3uQe7zAAyL-1" source="rwIOBKhuii3uQe7zAAyL-45" target="Lf6Y1JVFcwCP0ejmNtgy-9">
          <mxGeometry relative="1" as="geometry" />
        </mxCell>
        <mxCell id="rwIOBKhuii3uQe7zAAyL-45" value="手机注册一个uid，并把微信绑定上" style="rounded=0;whiteSpace=wrap;html=1;align=center;" vertex="1" parent="rwIOBKhuii3uQe7zAAyL-1">
          <mxGeometry x="1163" y="549" width="120" height="60" as="geometry" />
        </mxCell>
        <mxCell id="rwIOBKhuii3uQe7zAAyL-46" style="edgeStyle=orthogonalEdgeStyle;rounded=0;orthogonalLoop=1;jettySize=auto;html=1;entryX=0;entryY=0.5;entryDx=0;entryDy=0;" edge="1" parent="rwIOBKhuii3uQe7zAAyL-1" source="rwIOBKhuii3uQe7zAAyL-98" target="rwIOBKhuii3uQe7zAAyL-36">
          <mxGeometry relative="1" as="geometry">
            <mxPoint x="1189" y="849" as="sourcePoint" />
          </mxGeometry>
        </mxCell>
        <mxCell id="rwIOBKhuii3uQe7zAAyL-48" value="都没有资产" style="edgeStyle=orthogonalEdgeStyle;rounded=0;orthogonalLoop=1;jettySize=auto;html=1;" edge="1" parent="rwIOBKhuii3uQe7zAAyL-1" source="rwIOBKhuii3uQe7zAAyL-51" target="rwIOBKhuii3uQe7zAAyL-55">
          <mxGeometry relative="1" as="geometry" />
        </mxCell>
        <mxCell id="rwIOBKhuii3uQe7zAAyL-49" value="都有" style="edgeStyle=orthogonalEdgeStyle;rounded=0;orthogonalLoop=1;jettySize=auto;html=1;" edge="1" parent="rwIOBKhuii3uQe7zAAyL-1" source="rwIOBKhuii3uQe7zAAyL-51" target="rwIOBKhuii3uQe7zAAyL-61">
          <mxGeometry relative="1" as="geometry" />
        </mxCell>
        <mxCell id="rwIOBKhuii3uQe7zAAyL-50" value="有一个有资产" style="edgeStyle=orthogonalEdgeStyle;rounded=0;orthogonalLoop=1;jettySize=auto;html=1;" edge="1" parent="rwIOBKhuii3uQe7zAAyL-1" source="rwIOBKhuii3uQe7zAAyL-51" target="rwIOBKhuii3uQe7zAAyL-58">
          <mxGeometry relative="1" as="geometry" />
        </mxCell>
        <mxCell id="rwIOBKhuii3uQe7zAAyL-51" value="判断资产" style="rhombus;whiteSpace=wrap;html=1;align=center;" vertex="1" parent="rwIOBKhuii3uQe7zAAyL-1">
          <mxGeometry x="1538" y="1154" width="80" height="80" as="geometry" />
        </mxCell>
        <mxCell id="rwIOBKhuii3uQe7zAAyL-53" style="edgeStyle=orthogonalEdgeStyle;rounded=0;orthogonalLoop=1;jettySize=auto;html=1;" edge="1" parent="rwIOBKhuii3uQe7zAAyL-1" source="rwIOBKhuii3uQe7zAAyL-55" target="rwIOBKhuii3uQe7zAAyL-67">
          <mxGeometry relative="1" as="geometry">
            <mxPoint x="1834" y="1483" as="targetPoint" />
            <Array as="points">
              <mxPoint x="1734" y="1447" />
            </Array>
          </mxGeometry>
        </mxCell>
        <mxCell id="rwIOBKhuii3uQe7zAAyL-54" value="手机号uid登录" style="edgeLabel;html=1;align=center;verticalAlign=middle;resizable=0;points=[];" vertex="1" connectable="0" parent="rwIOBKhuii3uQe7zAAyL-53">
          <mxGeometry x="-0.2966" y="-2" relative="1" as="geometry">
            <mxPoint as="offset" />
          </mxGeometry>
        </mxCell>
        <mxCell id="rwIOBKhuii3uQe7zAAyL-55" value="合并到手机号uid上" style="rounded=0;whiteSpace=wrap;html=1;align=center;" vertex="1" parent="rwIOBKhuii3uQe7zAAyL-1">
          <mxGeometry x="1674" y="1281" width="120" height="60" as="geometry" />
        </mxCell>
        <mxCell id="rwIOBKhuii3uQe7zAAyL-56" value="" style="edgeStyle=orthogonalEdgeStyle;rounded=0;orthogonalLoop=1;jettySize=auto;html=1;" edge="1" parent="rwIOBKhuii3uQe7zAAyL-1" source="rwIOBKhuii3uQe7zAAyL-58" target="rwIOBKhuii3uQe7zAAyL-67">
          <mxGeometry relative="1" as="geometry" />
        </mxCell>
        <mxCell id="rwIOBKhuii3uQe7zAAyL-57" value="有资产的uid登录" style="edgeLabel;html=1;align=center;verticalAlign=middle;resizable=0;points=[];" vertex="1" connectable="0" parent="rwIOBKhuii3uQe7zAAyL-56">
          <mxGeometry x="-0.28" y="-2" relative="1" as="geometry">
            <mxPoint as="offset" />
          </mxGeometry>
        </mxCell>
        <mxCell id="rwIOBKhuii3uQe7zAAyL-58" value="合并到有资产的uid上" style="rounded=0;whiteSpace=wrap;html=1;align=center;" vertex="1" parent="rwIOBKhuii3uQe7zAAyL-1">
          <mxGeometry x="1518" y="1287" width="120" height="60" as="geometry" />
        </mxCell>
        <mxCell id="rwIOBKhuii3uQe7zAAyL-59" style="edgeStyle=orthogonalEdgeStyle;rounded=0;orthogonalLoop=1;jettySize=auto;html=1;" edge="1" parent="rwIOBKhuii3uQe7zAAyL-1" source="rwIOBKhuii3uQe7zAAyL-61" target="rwIOBKhuii3uQe7zAAyL-66">
          <mxGeometry relative="1" as="geometry" />
        </mxCell>
        <mxCell id="rwIOBKhuii3uQe7zAAyL-60" value="微信id登录" style="edgeLabel;html=1;align=center;verticalAlign=middle;resizable=0;points=[];" vertex="1" connectable="0" parent="rwIOBKhuii3uQe7zAAyL-59">
          <mxGeometry x="-0.0879" y="-3" relative="1" as="geometry">
            <mxPoint as="offset" />
          </mxGeometry>
        </mxCell>
        <mxCell id="rwIOBKhuii3uQe7zAAyL-61" value="获取两个账号的资产信息" style="rounded=0;whiteSpace=wrap;html=1;align=center;" vertex="1" parent="rwIOBKhuii3uQe7zAAyL-1">
          <mxGeometry x="1366" y="1164" width="120" height="60" as="geometry" />
        </mxCell>
        <mxCell id="rwIOBKhuii3uQe7zAAyL-62" style="edgeStyle=orthogonalEdgeStyle;rounded=0;orthogonalLoop=1;jettySize=auto;html=1;dashed=1;" edge="1" parent="rwIOBKhuii3uQe7zAAyL-1" source="rwIOBKhuii3uQe7zAAyL-64">
          <mxGeometry relative="1" as="geometry">
            <mxPoint x="1033" y="919" as="targetPoint" />
          </mxGeometry>
        </mxCell>
        <mxCell id="rwIOBKhuii3uQe7zAAyL-63" value="输入信息" style="edgeLabel;html=1;align=center;verticalAlign=middle;resizable=0;points=[];" vertex="1" connectable="0" parent="rwIOBKhuii3uQe7zAAyL-62">
          <mxGeometry x="-0.2459" y="-4" relative="1" as="geometry">
            <mxPoint as="offset" />
          </mxGeometry>
        </mxCell>
        <mxCell id="rwIOBKhuii3uQe7zAAyL-64" value="Actor" style="shape=umlActor;verticalLabelPosition=bottom;labelBackgroundColor=#ffffff;verticalAlign=top;html=1;outlineConnect=0;align=center;" vertex="1" parent="rwIOBKhuii3uQe7zAAyL-1">
          <mxGeometry x="1100" y="883" width="30" height="60" as="geometry" />
        </mxCell>
        <mxCell id="rwIOBKhuii3uQe7zAAyL-65" value="" style="edgeStyle=orthogonalEdgeStyle;rounded=0;orthogonalLoop=1;jettySize=auto;html=1;dashed=1;" edge="1" parent="rwIOBKhuii3uQe7zAAyL-1" source="rwIOBKhuii3uQe7zAAyL-66" target="rwIOBKhuii3uQe7zAAyL-72">
          <mxGeometry relative="1" as="geometry">
            <mxPoint x="1233" y="1522" as="targetPoint" />
          </mxGeometry>
        </mxCell>
        <mxCell id="rwIOBKhuii3uQe7zAAyL-66" value="执行登录&lt;br&gt;返回登录信息、资产信息" style="rounded=0;whiteSpace=wrap;html=1;align=center;fillColor=#f5f5f5;strokeColor=#666666;fontColor=#333333;" vertex="1" parent="rwIOBKhuii3uQe7zAAyL-1">
          <mxGeometry x="1366" y="1292" width="120" height="60" as="geometry" />
        </mxCell>
        <mxCell id="rwIOBKhuii3uQe7zAAyL-67" value="执行登录并返回&lt;br&gt;（是否已绑定手机号；是否新用户；微信用户是否存在；微信用户是否绑定了手机号；用户信息；token信息）" style="rounded=0;whiteSpace=wrap;html=1;align=center;fillColor=#f5f5f5;strokeColor=#666666;fontColor=#333333;" vertex="1" parent="rwIOBKhuii3uQe7zAAyL-1">
          <mxGeometry x="1500.5" y="1417" width="155" height="80" as="geometry" />
        </mxCell>
        <mxCell id="rwIOBKhuii3uQe7zAAyL-68" style="edgeStyle=orthogonalEdgeStyle;rounded=0;orthogonalLoop=1;jettySize=auto;html=1;dashed=1;" edge="1" parent="rwIOBKhuii3uQe7zAAyL-1" source="rwIOBKhuii3uQe7zAAyL-70">
          <mxGeometry relative="1" as="geometry">
            <mxPoint x="1292" y="1320.5" as="targetPoint" />
          </mxGeometry>
        </mxCell>
        <mxCell id="rwIOBKhuii3uQe7zAAyL-69" value="选择保留账号" style="edgeLabel;html=1;align=center;verticalAlign=middle;resizable=0;points=[];" vertex="1" connectable="0" parent="rwIOBKhuii3uQe7zAAyL-68">
          <mxGeometry x="-0.1228" y="1" relative="1" as="geometry">
            <mxPoint as="offset" />
          </mxGeometry>
        </mxCell>
        <mxCell id="rwIOBKhuii3uQe7zAAyL-70" value="Actor" style="shape=umlActor;verticalLabelPosition=bottom;labelBackgroundColor=#ffffff;verticalAlign=top;html=1;outlineConnect=0;align=center;" vertex="1" parent="rwIOBKhuii3uQe7zAAyL-1">
          <mxGeometry x="1277" y="1157.5" width="30" height="60" as="geometry" />
        </mxCell>
        <mxCell id="rwIOBKhuii3uQe7zAAyL-71" style="edgeStyle=orthogonalEdgeStyle;rounded=0;orthogonalLoop=1;jettySize=auto;html=1;" edge="1" parent="rwIOBKhuii3uQe7zAAyL-1" source="rwIOBKhuii3uQe7zAAyL-72" target="rwIOBKhuii3uQe7zAAyL-73">
          <mxGeometry relative="1" as="geometry" />
        </mxCell>
        <mxCell id="rwIOBKhuii3uQe7zAAyL-72" value="合并到选择的uid上" style="rounded=0;whiteSpace=wrap;html=1;align=center;" vertex="1" parent="rwIOBKhuii3uQe7zAAyL-1">
          <mxGeometry x="1125" y="1292" width="120" height="60" as="geometry" />
        </mxCell>
        <mxCell id="rwIOBKhuii3uQe7zAAyL-73" value="保留的uid和登录态不一致重新登录返回登录信息" style="rounded=0;whiteSpace=wrap;html=1;align=center;fillColor=#f5f5f5;strokeColor=#666666;fontColor=#333333;" vertex="1" parent="rwIOBKhuii3uQe7zAAyL-1">
          <mxGeometry x="952" y="1292" width="120" height="60" as="geometry" />
        </mxCell>
        <mxCell id="rwIOBKhuii3uQe7zAAyL-74" value="是" style="edgeStyle=orthogonalEdgeStyle;rounded=0;orthogonalLoop=1;jettySize=auto;html=1;" edge="1" parent="rwIOBKhuii3uQe7zAAyL-1" source="rwIOBKhuii3uQe7zAAyL-77" target="rwIOBKhuii3uQe7zAAyL-31">
          <mxGeometry relative="1" as="geometry">
            <mxPoint x="941" y="982" as="targetPoint" />
          </mxGeometry>
        </mxCell>
        <mxCell id="rwIOBKhuii3uQe7zAAyL-99" style="edgeStyle=orthogonalEdgeStyle;rounded=0;orthogonalLoop=1;jettySize=auto;html=1;entryX=0;entryY=0.5;entryDx=0;entryDy=0;exitX=0.5;exitY=1;exitDx=0;exitDy=0;" edge="1" parent="rwIOBKhuii3uQe7zAAyL-1" source="rwIOBKhuii3uQe7zAAyL-77" target="rwIOBKhuii3uQe7zAAyL-10">
          <mxGeometry relative="1" as="geometry">
            <Array as="points">
              <mxPoint x="848" y="1434" />
              <mxPoint x="378" y="1434" />
            </Array>
          </mxGeometry>
        </mxCell>
        <mxCell id="rwIOBKhuii3uQe7zAAyL-100" value="否" style="edgeLabel;html=1;align=center;verticalAlign=middle;resizable=0;points=[];" vertex="1" connectable="0" parent="rwIOBKhuii3uQe7zAAyL-99">
          <mxGeometry x="-0.2509" relative="1" as="geometry">
            <mxPoint x="35" y="-370" as="offset" />
          </mxGeometry>
        </mxCell>
        <mxCell id="3SqBe-F1LxTx7wcSYXd7-0" value="业务决定是否需要创建新uid登录" style="edgeLabel;html=1;align=center;verticalAlign=middle;resizable=0;points=[];" vertex="1" connectable="0" parent="rwIOBKhuii3uQe7zAAyL-99">
          <mxGeometry x="0.1379" relative="1" as="geometry">
            <mxPoint as="offset" />
          </mxGeometry>
        </mxCell>
        <mxCell id="rwIOBKhuii3uQe7zAAyL-77" value="是否引导绑定手机号" style="rhombus;whiteSpace=wrap;html=1;align=center;" vertex="1" parent="rwIOBKhuii3uQe7zAAyL-1">
          <mxGeometry x="808" y="940" width="80" height="80" as="geometry" />
        </mxCell>
        <mxCell id="rwIOBKhuii3uQe7zAAyL-81" value="" style="edgeStyle=orthogonalEdgeStyle;rounded=0;orthogonalLoop=1;jettySize=auto;html=1;exitX=0.5;exitY=0;exitDx=0;exitDy=0;" edge="1" parent="rwIOBKhuii3uQe7zAAyL-1" source="rwIOBKhuii3uQe7zAAyL-85" target="rwIOBKhuii3uQe7zAAyL-45">
          <mxGeometry relative="1" as="geometry">
            <mxPoint x="1517" y="682" as="targetPoint" />
          </mxGeometry>
        </mxCell>
        <mxCell id="rwIOBKhuii3uQe7zAAyL-82" value="否" style="edgeLabel;html=1;align=center;verticalAlign=middle;resizable=0;points=[];" vertex="1" connectable="0" parent="rwIOBKhuii3uQe7zAAyL-81">
          <mxGeometry x="-0.2285" y="1" relative="1" as="geometry">
            <mxPoint x="-1" as="offset" />
          </mxGeometry>
        </mxCell>
        <mxCell id="rwIOBKhuii3uQe7zAAyL-83" style="edgeStyle=orthogonalEdgeStyle;rounded=0;orthogonalLoop=1;jettySize=auto;html=1;" edge="1" parent="rwIOBKhuii3uQe7zAAyL-1" source="rwIOBKhuii3uQe7zAAyL-85" target="rwIOBKhuii3uQe7zAAyL-90">
          <mxGeometry relative="1" as="geometry" />
        </mxCell>
        <mxCell id="rwIOBKhuii3uQe7zAAyL-84" value="是" style="edgeLabel;html=1;align=center;verticalAlign=middle;resizable=0;points=[];" vertex="1" connectable="0" parent="rwIOBKhuii3uQe7zAAyL-83">
          <mxGeometry x="-0.1268" y="-2" relative="1" as="geometry">
            <mxPoint x="1" as="offset" />
          </mxGeometry>
        </mxCell>
        <mxCell id="rwIOBKhuii3uQe7zAAyL-85" value="手机存在uid" style="rhombus;whiteSpace=wrap;html=1;align=center;" vertex="1" parent="rwIOBKhuii3uQe7zAAyL-1">
          <mxGeometry x="1183" y="669" width="80" height="80" as="geometry" />
        </mxCell>
        <mxCell id="rwIOBKhuii3uQe7zAAyL-86" style="edgeStyle=orthogonalEdgeStyle;rounded=0;orthogonalLoop=1;jettySize=auto;html=1;" edge="1" parent="rwIOBKhuii3uQe7zAAyL-1" source="rwIOBKhuii3uQe7zAAyL-90" target="rwIOBKhuii3uQe7zAAyL-91">
          <mxGeometry relative="1" as="geometry" />
        </mxCell>
        <mxCell id="rwIOBKhuii3uQe7zAAyL-87" value="否" style="edgeLabel;html=1;align=center;verticalAlign=middle;resizable=0;points=[];" vertex="1" connectable="0" parent="rwIOBKhuii3uQe7zAAyL-86">
          <mxGeometry x="0.1654" y="-1" relative="1" as="geometry">
            <mxPoint as="offset" />
          </mxGeometry>
        </mxCell>
        <mxCell id="rwIOBKhuii3uQe7zAAyL-88" style="edgeStyle=orthogonalEdgeStyle;rounded=0;orthogonalLoop=1;jettySize=auto;html=1;" edge="1" parent="rwIOBKhuii3uQe7zAAyL-1" source="rwIOBKhuii3uQe7zAAyL-90" target="rwIOBKhuii3uQe7zAAyL-92">
          <mxGeometry relative="1" as="geometry" />
        </mxCell>
        <mxCell id="rwIOBKhuii3uQe7zAAyL-89" value="是" style="edgeLabel;html=1;align=center;verticalAlign=middle;resizable=0;points=[];" vertex="1" connectable="0" parent="rwIOBKhuii3uQe7zAAyL-88">
          <mxGeometry x="-0.7966" y="3" relative="1" as="geometry">
            <mxPoint y="-1" as="offset" />
          </mxGeometry>
        </mxCell>
        <mxCell id="rwIOBKhuii3uQe7zAAyL-90" value="手机已绑定微信" style="rhombus;whiteSpace=wrap;html=1;align=center;" vertex="1" parent="rwIOBKhuii3uQe7zAAyL-1">
          <mxGeometry x="1417" y="669" width="80" height="80" as="geometry" />
        </mxCell>
        <mxCell id="Lf6Y1JVFcwCP0ejmNtgy-11" style="edgeStyle=orthogonalEdgeStyle;rounded=0;orthogonalLoop=1;jettySize=auto;html=1;" edge="1" parent="rwIOBKhuii3uQe7zAAyL-1" source="rwIOBKhuii3uQe7zAAyL-91" target="Lf6Y1JVFcwCP0ejmNtgy-9">
          <mxGeometry relative="1" as="geometry" />
        </mxCell>
        <mxCell id="rwIOBKhuii3uQe7zAAyL-91" value="微信绑定到手机uid" style="rounded=0;whiteSpace=wrap;html=1;align=center;" vertex="1" parent="rwIOBKhuii3uQe7zAAyL-1">
          <mxGeometry x="1603" y="679" width="120" height="60" as="geometry" />
        </mxCell>
        <mxCell id="rwIOBKhuii3uQe7zAAyL-92" value="未登录返回提示手机号已绑定换手机号" style="rounded=0;whiteSpace=wrap;html=1;align=center;fillColor=#f5f5f5;strokeColor=#666666;fontColor=#333333;" vertex="1" parent="rwIOBKhuii3uQe7zAAyL-1">
          <mxGeometry x="1397" y="806" width="120" height="60" as="geometry" />
        </mxCell>
        <mxCell id="rwIOBKhuii3uQe7zAAyL-93" value="" style="edgeStyle=orthogonalEdgeStyle;rounded=0;orthogonalLoop=1;jettySize=auto;html=1;" edge="1" parent="rwIOBKhuii3uQe7zAAyL-1" source="rwIOBKhuii3uQe7zAAyL-94" target="rwIOBKhuii3uQe7zAAyL-96">
          <mxGeometry relative="1" as="geometry">
            <mxPoint x="1517" y="964" as="targetPoint" />
          </mxGeometry>
        </mxCell>
        <mxCell id="Lf6Y1JVFcwCP0ejmNtgy-1" value="是" style="edgeLabel;html=1;align=center;verticalAlign=middle;resizable=0;points=[];" vertex="1" connectable="0" parent="rwIOBKhuii3uQe7zAAyL-93">
          <mxGeometry x="-0.8209" y="1" relative="1" as="geometry">
            <mxPoint as="offset" />
          </mxGeometry>
        </mxCell>
        <mxCell id="Lf6Y1JVFcwCP0ejmNtgy-4" value="" style="edgeStyle=orthogonalEdgeStyle;rounded=0;orthogonalLoop=1;jettySize=auto;html=1;" edge="1" parent="rwIOBKhuii3uQe7zAAyL-1" source="rwIOBKhuii3uQe7zAAyL-94" target="Lf6Y1JVFcwCP0ejmNtgy-3">
          <mxGeometry relative="1" as="geometry" />
        </mxCell>
        <mxCell id="Lf6Y1JVFcwCP0ejmNtgy-5" value="否" style="edgeLabel;html=1;align=center;verticalAlign=middle;resizable=0;points=[];" vertex="1" connectable="0" parent="Lf6Y1JVFcwCP0ejmNtgy-4">
          <mxGeometry x="0.3585" y="1" relative="1" as="geometry">
            <mxPoint as="offset" />
          </mxGeometry>
        </mxCell>
        <mxCell id="rwIOBKhuii3uQe7zAAyL-94" value="微信绑定了手机" style="rhombus;whiteSpace=wrap;html=1;align=center;" vertex="1" parent="rwIOBKhuii3uQe7zAAyL-1">
          <mxGeometry x="1183" y="937" width="80" height="80" as="geometry" />
        </mxCell>
        <mxCell id="rwIOBKhuii3uQe7zAAyL-95" value="" style="edgeStyle=orthogonalEdgeStyle;rounded=0;orthogonalLoop=1;jettySize=auto;html=1;" edge="1" parent="rwIOBKhuii3uQe7zAAyL-1" source="rwIOBKhuii3uQe7zAAyL-96" target="rwIOBKhuii3uQe7zAAyL-97">
          <mxGeometry relative="1" as="geometry" />
        </mxCell>
        <mxCell id="rwIOBKhuii3uQe7zAAyL-96" value="微信id登录" style="rounded=0;whiteSpace=wrap;html=1;align=center;" vertex="1" parent="rwIOBKhuii3uQe7zAAyL-1">
          <mxGeometry x="1397" y="947" width="120" height="60" as="geometry" />
        </mxCell>
        <mxCell id="rwIOBKhuii3uQe7zAAyL-97" value="返回登录信息&lt;br&gt;,已绑定和当前手机号是否一样" style="rounded=0;whiteSpace=wrap;html=1;align=center;fillColor=#f5f5f5;strokeColor=#666666;fontColor=#333333;" vertex="1" parent="rwIOBKhuii3uQe7zAAyL-1">
          <mxGeometry x="1593" y="947" width="120" height="60" as="geometry" />
        </mxCell>
        <mxCell id="rwIOBKhuii3uQe7zAAyL-98" value="未登录态&lt;br&gt;绑定子流程&lt;br&gt;(unionid&amp;amp;phone)" style="shape=process;whiteSpace=wrap;html=1;backgroundOutline=1;align=center;" vertex="1" parent="rwIOBKhuii3uQe7zAAyL-1">
          <mxGeometry x="971" y="819" width="120" height="60" as="geometry" />
        </mxCell>
        <mxCell id="Lf6Y1JVFcwCP0ejmNtgy-7" value="" style="edgeStyle=orthogonalEdgeStyle;rounded=0;orthogonalLoop=1;jettySize=auto;html=1;" edge="1" parent="rwIOBKhuii3uQe7zAAyL-1" source="Lf6Y1JVFcwCP0ejmNtgy-3" target="Lf6Y1JVFcwCP0ejmNtgy-6">
          <mxGeometry relative="1" as="geometry" />
        </mxCell>
        <mxCell id="Lf6Y1JVFcwCP0ejmNtgy-8" value="否" style="edgeLabel;html=1;align=center;verticalAlign=middle;resizable=0;points=[];" vertex="1" connectable="0" parent="Lf6Y1JVFcwCP0ejmNtgy-7">
          <mxGeometry x="-0.5472" y="-2" relative="1" as="geometry">
            <mxPoint as="offset" />
          </mxGeometry>
        </mxCell>
        <mxCell id="Lf6Y1JVFcwCP0ejmNtgy-16" style="edgeStyle=orthogonalEdgeStyle;rounded=0;orthogonalLoop=1;jettySize=auto;html=1;" edge="1" parent="rwIOBKhuii3uQe7zAAyL-1" source="Lf6Y1JVFcwCP0ejmNtgy-3" target="rwIOBKhuii3uQe7zAAyL-40">
          <mxGeometry relative="1" as="geometry" />
        </mxCell>
        <mxCell id="Lf6Y1JVFcwCP0ejmNtgy-3" value="手机存在uid" style="rhombus;whiteSpace=wrap;html=1;align=center;" vertex="1" parent="rwIOBKhuii3uQe7zAAyL-1">
          <mxGeometry x="1183" y="1044" width="80" height="80" as="geometry" />
        </mxCell>
        <mxCell id="Lf6Y1JVFcwCP0ejmNtgy-13" style="edgeStyle=orthogonalEdgeStyle;rounded=0;orthogonalLoop=1;jettySize=auto;html=1;entryX=1;entryY=0.5;entryDx=0;entryDy=0;" edge="1" parent="rwIOBKhuii3uQe7zAAyL-1" source="Lf6Y1JVFcwCP0ejmNtgy-6" target="rwIOBKhuii3uQe7zAAyL-18">
          <mxGeometry relative="1" as="geometry">
            <Array as="points">
              <mxPoint x="924" y="1084" />
              <mxPoint x="924" y="1368" />
            </Array>
          </mxGeometry>
        </mxCell>
        <mxCell id="Lf6Y1JVFcwCP0ejmNtgy-6" value="手机绑定到微信上" style="rounded=0;whiteSpace=wrap;html=1;align=center;" vertex="1" parent="rwIOBKhuii3uQe7zAAyL-1">
          <mxGeometry x="1010" y="1054" width="120" height="60" as="geometry" />
        </mxCell>
        <mxCell id="Lf6Y1JVFcwCP0ejmNtgy-9" value="执行登录并返回&lt;br&gt;（是否已绑定手机号；是否新用户；微信用户是否存在；微信用户是否绑定了手机号；用户信息；token信息）" style="rounded=0;whiteSpace=wrap;html=1;align=center;fillColor=#f5f5f5;strokeColor=#666666;fontColor=#333333;" vertex="1" parent="rwIOBKhuii3uQe7zAAyL-1">
          <mxGeometry x="1582.5" y="541" width="161" height="80" as="geometry" />
        </mxCell>
        <mxCell id="dm2gYgl93w5YnRJRNPYd-6" value="" style="edgeStyle=orthogonalEdgeStyle;rounded=0;orthogonalLoop=1;jettySize=auto;html=1;" edge="1" parent="rwIOBKhuii3uQe7zAAyL-1" source="dm2gYgl93w5YnRJRNPYd-2" target="dm2gYgl93w5YnRJRNPYd-7">
          <mxGeometry relative="1" as="geometry">
            <mxPoint x="664" y="1518" as="targetPoint" />
          </mxGeometry>
        </mxCell>
        <mxCell id="dm2gYgl93w5YnRJRNPYd-2" value="未绑定手机号引导绑定" style="rhombus;whiteSpace=wrap;html=1;align=center;" vertex="1" parent="rwIOBKhuii3uQe7zAAyL-1">
          <mxGeometry x="516" y="1478" width="80" height="80" as="geometry" />
        </mxCell>
        <mxCell id="dm2gYgl93w5YnRJRNPYd-7" value="微信登录态绑定手机号流程" style="shape=process;whiteSpace=wrap;html=1;backgroundOutline=1;align=center;" vertex="1" parent="rwIOBKhuii3uQe7zAAyL-1">
          <mxGeometry x="660" y="1488" width="120" height="60" as="geometry" />
        </mxCell>
      </root>
    </mxGraphModel>
  </diagram>
  <diagram id="7tKB8YYSByPF0n6eWo9M" name="账号合并-微信登录态绑定手机">
    <mxGraphModel dx="1472" dy="574" grid="0" gridSize="10" guides="1" tooltips="1" connect="1" arrows="1" fold="1" page="0" pageScale="1" pageWidth="827" pageHeight="1169" math="0" shadow="0">
      <root>
        <mxCell id="I7XONH3aEFssyfK8JSaG-0" />
        <mxCell id="I7XONH3aEFssyfK8JSaG-1" parent="I7XONH3aEFssyfK8JSaG-0" />
        <mxCell id="XwQBfEDe6DhfKQNuaogB-5" value="" style="edgeStyle=orthogonalEdgeStyle;rounded=0;orthogonalLoop=1;jettySize=auto;html=1;" edge="1" parent="I7XONH3aEFssyfK8JSaG-1" source="XwQBfEDe6DhfKQNuaogB-0" target="NtYe138frFqwP2GcFoV_-22">
          <mxGeometry relative="1" as="geometry" />
        </mxCell>
        <mxCell id="XwQBfEDe6DhfKQNuaogB-0" value="得到前端输入的手机号&amp;amp;验证码" style="rounded=0;whiteSpace=wrap;html=1;align=center;" vertex="1" parent="I7XONH3aEFssyfK8JSaG-1">
          <mxGeometry x="174" y="147" width="120" height="60" as="geometry" />
        </mxCell>
        <mxCell id="XwQBfEDe6DhfKQNuaogB-6" value="" style="edgeStyle=orthogonalEdgeStyle;rounded=0;orthogonalLoop=1;jettySize=auto;html=1;" edge="1" parent="I7XONH3aEFssyfK8JSaG-1" source="XwQBfEDe6DhfKQNuaogB-3" target="NtYe138frFqwP2GcFoV_-2">
          <mxGeometry relative="1" as="geometry">
            <mxPoint x="744" y="167" as="targetPoint" />
          </mxGeometry>
        </mxCell>
        <mxCell id="XwQBfEDe6DhfKQNuaogB-12" value="是" style="edgeLabel;html=1;align=center;verticalAlign=middle;resizable=0;points=[];" vertex="1" connectable="0" parent="XwQBfEDe6DhfKQNuaogB-6">
          <mxGeometry x="-0.3636" relative="1" as="geometry">
            <mxPoint as="offset" />
          </mxGeometry>
        </mxCell>
        <mxCell id="XwQBfEDe6DhfKQNuaogB-10" style="edgeStyle=orthogonalEdgeStyle;rounded=0;orthogonalLoop=1;jettySize=auto;html=1;" edge="1" parent="I7XONH3aEFssyfK8JSaG-1" source="XwQBfEDe6DhfKQNuaogB-3" target="XwQBfEDe6DhfKQNuaogB-9">
          <mxGeometry relative="1" as="geometry" />
        </mxCell>
        <mxCell id="XwQBfEDe6DhfKQNuaogB-11" value="否" style="edgeLabel;html=1;align=center;verticalAlign=middle;resizable=0;points=[];" vertex="1" connectable="0" parent="XwQBfEDe6DhfKQNuaogB-10">
          <mxGeometry x="-0.7778" y="-2" relative="1" as="geometry">
            <mxPoint as="offset" />
          </mxGeometry>
        </mxCell>
        <mxCell id="XwQBfEDe6DhfKQNuaogB-3" value="手机号有uid" style="rhombus;whiteSpace=wrap;html=1;align=center;" vertex="1" parent="I7XONH3aEFssyfK8JSaG-1">
          <mxGeometry x="497" y="137" width="80" height="80" as="geometry" />
        </mxCell>
        <mxCell id="XwQBfEDe6DhfKQNuaogB-9" value="手机号绑定到当前uid&lt;br&gt;返回" style="rounded=0;whiteSpace=wrap;html=1;align=center;fillColor=#f5f5f5;strokeColor=#666666;fontColor=#333333;" vertex="1" parent="I7XONH3aEFssyfK8JSaG-1">
          <mxGeometry x="477" y="26" width="120" height="60" as="geometry" />
        </mxCell>
        <mxCell id="QhTtK3lDlYIRvFoyprpG-26" value="" style="edgeStyle=orthogonalEdgeStyle;rounded=0;orthogonalLoop=1;jettySize=auto;html=1;" edge="1" parent="I7XONH3aEFssyfK8JSaG-1" source="iWbG6g7Ilt0xfhzVOyty-22" target="QhTtK3lDlYIRvFoyprpG-25">
          <mxGeometry relative="1" as="geometry" />
        </mxCell>
        <mxCell id="QhTtK3lDlYIRvFoyprpG-27" value="否" style="edgeLabel;html=1;align=center;verticalAlign=middle;resizable=0;points=[];" vertex="1" connectable="0" parent="QhTtK3lDlYIRvFoyprpG-26">
          <mxGeometry x="-0.1549" y="2" relative="1" as="geometry">
            <mxPoint as="offset" />
          </mxGeometry>
        </mxCell>
        <mxCell id="iWbG6g7Ilt0xfhzVOyty-33" style="edgeStyle=orthogonalEdgeStyle;rounded=0;orthogonalLoop=1;jettySize=auto;html=1;" edge="1" parent="I7XONH3aEFssyfK8JSaG-1" source="QhTtK3lDlYIRvFoyprpG-25" target="QhTtK3lDlYIRvFoyprpG-30">
          <mxGeometry relative="1" as="geometry" />
        </mxCell>
        <mxCell id="QhTtK3lDlYIRvFoyprpG-25" value="重新登录" style="rounded=0;whiteSpace=wrap;html=1;align=center;" vertex="1" parent="I7XONH3aEFssyfK8JSaG-1">
          <mxGeometry x="630" y="510" width="120" height="60" as="geometry" />
        </mxCell>
        <mxCell id="QhTtK3lDlYIRvFoyprpG-30" value="返回登录信息、是否切换登录等" style="rounded=0;whiteSpace=wrap;html=1;align=center;fillColor=#f5f5f5;strokeColor=#666666;fontColor=#333333;" vertex="1" parent="I7XONH3aEFssyfK8JSaG-1">
          <mxGeometry x="458" y="510" width="120" height="60" as="geometry" />
        </mxCell>
        <mxCell id="4Z4IuXUh3sJH6CI6StfA-1" value="" style="edgeStyle=orthogonalEdgeStyle;rounded=0;orthogonalLoop=1;jettySize=auto;html=1;" edge="1" parent="I7XONH3aEFssyfK8JSaG-1" source="wFpq66n0IZnyyIVv4047-0" target="XwQBfEDe6DhfKQNuaogB-0">
          <mxGeometry relative="1" as="geometry">
            <mxPoint x="107" y="167" as="sourcePoint" />
          </mxGeometry>
        </mxCell>
        <mxCell id="wFpq66n0IZnyyIVv4047-0" value="" style="ellipse;whiteSpace=wrap;html=1;align=center;" vertex="1" parent="I7XONH3aEFssyfK8JSaG-1">
          <mxGeometry x="3" y="137" width="120" height="80" as="geometry" />
        </mxCell>
        <mxCell id="JIjSiEw4of6SkUOXdWQ--1" style="edgeStyle=orthogonalEdgeStyle;rounded=0;orthogonalLoop=1;jettySize=auto;html=1;" edge="1" parent="I7XONH3aEFssyfK8JSaG-1" source="NtYe138frFqwP2GcFoV_-2" target="JIjSiEw4of6SkUOXdWQ--0">
          <mxGeometry relative="1" as="geometry" />
        </mxCell>
        <mxCell id="JIjSiEw4of6SkUOXdWQ--2" value="是" style="edgeLabel;html=1;align=center;verticalAlign=middle;resizable=0;points=[];" vertex="1" connectable="0" parent="JIjSiEw4of6SkUOXdWQ--1">
          <mxGeometry x="-0.0018" y="1" relative="1" as="geometry">
            <mxPoint as="offset" />
          </mxGeometry>
        </mxCell>
        <mxCell id="oAttbDL27qv9GPI92q8D-8" style="edgeStyle=orthogonalEdgeStyle;rounded=0;orthogonalLoop=1;jettySize=auto;html=1;" edge="1" parent="I7XONH3aEFssyfK8JSaG-1" source="NtYe138frFqwP2GcFoV_-2" target="iWbG6g7Ilt0xfhzVOyty-3">
          <mxGeometry relative="1" as="geometry" />
        </mxCell>
        <mxCell id="oAttbDL27qv9GPI92q8D-9" value="否" style="edgeLabel;html=1;align=center;verticalAlign=middle;resizable=0;points=[];" vertex="1" connectable="0" parent="oAttbDL27qv9GPI92q8D-8">
          <mxGeometry x="-0.2037" relative="1" as="geometry">
            <mxPoint as="offset" />
          </mxGeometry>
        </mxCell>
        <mxCell id="NtYe138frFqwP2GcFoV_-2" value="unionid和手机是一个uid" style="rhombus;whiteSpace=wrap;html=1;align=center;" vertex="1" parent="I7XONH3aEFssyfK8JSaG-1">
          <mxGeometry x="649" y="137" width="80" height="80" as="geometry" />
        </mxCell>
        <mxCell id="NtYe138frFqwP2GcFoV_-25" value="" style="edgeStyle=orthogonalEdgeStyle;rounded=0;orthogonalLoop=1;jettySize=auto;html=1;" edge="1" parent="I7XONH3aEFssyfK8JSaG-1" source="NtYe138frFqwP2GcFoV_-22" target="XwQBfEDe6DhfKQNuaogB-3">
          <mxGeometry relative="1" as="geometry" />
        </mxCell>
        <mxCell id="MJvai3uaOUwQ62KenEza-1" style="edgeStyle=orthogonalEdgeStyle;rounded=0;orthogonalLoop=1;jettySize=auto;html=1;" edge="1" parent="I7XONH3aEFssyfK8JSaG-1" source="NtYe138frFqwP2GcFoV_-22" target="MJvai3uaOUwQ62KenEza-0">
          <mxGeometry relative="1" as="geometry" />
        </mxCell>
        <mxCell id="MJvai3uaOUwQ62KenEza-2" value="是" style="edgeLabel;html=1;align=center;verticalAlign=middle;resizable=0;points=[];" vertex="1" connectable="0" parent="MJvai3uaOUwQ62KenEza-1">
          <mxGeometry x="0.159" y="3" relative="1" as="geometry">
            <mxPoint x="3" y="12.15" as="offset" />
          </mxGeometry>
        </mxCell>
        <mxCell id="NtYe138frFqwP2GcFoV_-22" value="当前登录微信绑定了手机" style="rhombus;whiteSpace=wrap;html=1;align=center;" vertex="1" parent="I7XONH3aEFssyfK8JSaG-1">
          <mxGeometry x="349" y="137" width="80" height="80" as="geometry" />
        </mxCell>
        <mxCell id="MJvai3uaOUwQ62KenEza-0" value="返回已绑定和当前手机号是否一样" style="rounded=0;whiteSpace=wrap;html=1;align=center;fillColor=#f5f5f5;strokeColor=#666666;fontColor=#333333;" vertex="1" parent="I7XONH3aEFssyfK8JSaG-1">
          <mxGeometry x="329" y="32" width="120" height="60" as="geometry" />
        </mxCell>
        <mxCell id="JIjSiEw4of6SkUOXdWQ--0" value="返回提示是同一个账号" style="rounded=0;whiteSpace=wrap;html=1;align=center;fillColor=#f5f5f5;strokeColor=#666666;fontColor=#333333;" vertex="1" parent="I7XONH3aEFssyfK8JSaG-1">
          <mxGeometry x="629" y="22" width="120" height="60" as="geometry" />
        </mxCell>
        <mxCell id="iWbG6g7Ilt0xfhzVOyty-0" value="都没有资产" style="edgeStyle=orthogonalEdgeStyle;rounded=0;orthogonalLoop=1;jettySize=auto;html=1;" edge="1" parent="I7XONH3aEFssyfK8JSaG-1" source="iWbG6g7Ilt0xfhzVOyty-3" target="iWbG6g7Ilt0xfhzVOyty-6">
          <mxGeometry relative="1" as="geometry" />
        </mxCell>
        <mxCell id="iWbG6g7Ilt0xfhzVOyty-1" value="都有" style="edgeStyle=orthogonalEdgeStyle;rounded=0;orthogonalLoop=1;jettySize=auto;html=1;" edge="1" parent="I7XONH3aEFssyfK8JSaG-1" source="iWbG6g7Ilt0xfhzVOyty-3" target="iWbG6g7Ilt0xfhzVOyty-12">
          <mxGeometry relative="1" as="geometry" />
        </mxCell>
        <mxCell id="iWbG6g7Ilt0xfhzVOyty-2" value="有一个有资产" style="edgeStyle=orthogonalEdgeStyle;rounded=0;orthogonalLoop=1;jettySize=auto;html=1;" edge="1" parent="I7XONH3aEFssyfK8JSaG-1" source="iWbG6g7Ilt0xfhzVOyty-3" target="iWbG6g7Ilt0xfhzVOyty-9">
          <mxGeometry relative="1" as="geometry" />
        </mxCell>
        <mxCell id="iWbG6g7Ilt0xfhzVOyty-3" value="判断资产" style="rhombus;whiteSpace=wrap;html=1;align=center;" vertex="1" parent="I7XONH3aEFssyfK8JSaG-1">
          <mxGeometry x="854" y="229" width="80" height="80" as="geometry" />
        </mxCell>
        <mxCell id="oAttbDL27qv9GPI92q8D-15" style="edgeStyle=orthogonalEdgeStyle;rounded=0;orthogonalLoop=1;jettySize=auto;html=1;" edge="1" parent="I7XONH3aEFssyfK8JSaG-1" source="iWbG6g7Ilt0xfhzVOyty-6" target="iWbG6g7Ilt0xfhzVOyty-22">
          <mxGeometry relative="1" as="geometry">
            <Array as="points">
              <mxPoint x="1021" y="466" />
              <mxPoint x="889" y="466" />
            </Array>
          </mxGeometry>
        </mxCell>
        <mxCell id="iWbG6g7Ilt0xfhzVOyty-6" value="合并到手机号uid上" style="rounded=0;whiteSpace=wrap;html=1;align=center;" vertex="1" parent="I7XONH3aEFssyfK8JSaG-1">
          <mxGeometry x="961" y="353" width="120" height="60" as="geometry" />
        </mxCell>
        <mxCell id="iWbG6g7Ilt0xfhzVOyty-7" value="" style="edgeStyle=orthogonalEdgeStyle;rounded=0;orthogonalLoop=1;jettySize=auto;html=1;" edge="1" parent="I7XONH3aEFssyfK8JSaG-1" source="iWbG6g7Ilt0xfhzVOyty-9" target="iWbG6g7Ilt0xfhzVOyty-22">
          <mxGeometry relative="1" as="geometry" />
        </mxCell>
        <mxCell id="iWbG6g7Ilt0xfhzVOyty-9" value="合并到有资产的uid上" style="rounded=0;whiteSpace=wrap;html=1;align=center;" vertex="1" parent="I7XONH3aEFssyfK8JSaG-1">
          <mxGeometry x="831" y="356" width="120" height="60" as="geometry" />
        </mxCell>
        <mxCell id="iWbG6g7Ilt0xfhzVOyty-10" style="edgeStyle=orthogonalEdgeStyle;rounded=0;orthogonalLoop=1;jettySize=auto;html=1;" edge="1" parent="I7XONH3aEFssyfK8JSaG-1" source="iWbG6g7Ilt0xfhzVOyty-12" target="iWbG6g7Ilt0xfhzVOyty-14">
          <mxGeometry relative="1" as="geometry" />
        </mxCell>
        <mxCell id="iWbG6g7Ilt0xfhzVOyty-11" value="微信id登录" style="edgeLabel;html=1;align=center;verticalAlign=middle;resizable=0;points=[];" vertex="1" connectable="0" parent="iWbG6g7Ilt0xfhzVOyty-10">
          <mxGeometry x="-0.0879" y="-3" relative="1" as="geometry">
            <mxPoint as="offset" />
          </mxGeometry>
        </mxCell>
        <mxCell id="iWbG6g7Ilt0xfhzVOyty-12" value="获取两个账号的资产信息" style="rounded=0;whiteSpace=wrap;html=1;align=center;" vertex="1" parent="I7XONH3aEFssyfK8JSaG-1">
          <mxGeometry x="679" y="236" width="120" height="60" as="geometry" />
        </mxCell>
        <mxCell id="iWbG6g7Ilt0xfhzVOyty-13" value="" style="edgeStyle=orthogonalEdgeStyle;rounded=0;orthogonalLoop=1;jettySize=auto;html=1;dashed=1;" edge="1" parent="I7XONH3aEFssyfK8JSaG-1" source="iWbG6g7Ilt0xfhzVOyty-14" target="iWbG6g7Ilt0xfhzVOyty-25">
          <mxGeometry relative="1" as="geometry">
            <mxPoint x="535" y="651" as="targetPoint" />
          </mxGeometry>
        </mxCell>
        <mxCell id="iWbG6g7Ilt0xfhzVOyty-14" value="执行登录&lt;br&gt;返回登录信息、资产信息" style="rounded=0;whiteSpace=wrap;html=1;align=center;fillColor=#f5f5f5;strokeColor=#666666;fontColor=#333333;" vertex="1" parent="I7XONH3aEFssyfK8JSaG-1">
          <mxGeometry x="679" y="364" width="120" height="60" as="geometry" />
        </mxCell>
        <mxCell id="iWbG6g7Ilt0xfhzVOyty-16" style="edgeStyle=orthogonalEdgeStyle;rounded=0;orthogonalLoop=1;jettySize=auto;html=1;dashed=1;" edge="1" parent="I7XONH3aEFssyfK8JSaG-1" source="iWbG6g7Ilt0xfhzVOyty-18">
          <mxGeometry relative="1" as="geometry">
            <mxPoint x="594" y="391" as="targetPoint" />
          </mxGeometry>
        </mxCell>
        <mxCell id="iWbG6g7Ilt0xfhzVOyty-17" value="选择保留账号" style="edgeLabel;html=1;align=center;verticalAlign=middle;resizable=0;points=[];" vertex="1" connectable="0" parent="iWbG6g7Ilt0xfhzVOyty-16">
          <mxGeometry x="-0.1228" y="1" relative="1" as="geometry">
            <mxPoint as="offset" />
          </mxGeometry>
        </mxCell>
        <mxCell id="iWbG6g7Ilt0xfhzVOyty-18" value="Actor" style="shape=umlActor;verticalLabelPosition=bottom;labelBackgroundColor=#ffffff;verticalAlign=top;html=1;outlineConnect=0;align=center;" vertex="1" parent="I7XONH3aEFssyfK8JSaG-1">
          <mxGeometry x="577" y="252" width="30" height="60" as="geometry" />
        </mxCell>
        <mxCell id="oAttbDL27qv9GPI92q8D-14" style="edgeStyle=orthogonalEdgeStyle;rounded=0;orthogonalLoop=1;jettySize=auto;html=1;exitX=0.5;exitY=1;exitDx=0;exitDy=0;" edge="1" parent="I7XONH3aEFssyfK8JSaG-1" source="iWbG6g7Ilt0xfhzVOyty-20" target="iWbG6g7Ilt0xfhzVOyty-22">
          <mxGeometry relative="1" as="geometry">
            <Array as="points">
              <mxPoint x="153" y="465" />
              <mxPoint x="889" y="465" />
            </Array>
          </mxGeometry>
        </mxCell>
        <mxCell id="iWbG6g7Ilt0xfhzVOyty-20" value="合并到选择的uid上" style="rounded=0;whiteSpace=wrap;html=1;align=center;" vertex="1" parent="I7XONH3aEFssyfK8JSaG-1">
          <mxGeometry x="93" y="366" width="120" height="60" as="geometry" />
        </mxCell>
        <mxCell id="iWbG6g7Ilt0xfhzVOyty-35" value="" style="edgeStyle=orthogonalEdgeStyle;rounded=0;orthogonalLoop=1;jettySize=auto;html=1;" edge="1" parent="I7XONH3aEFssyfK8JSaG-1" source="iWbG6g7Ilt0xfhzVOyty-22" target="iWbG6g7Ilt0xfhzVOyty-34">
          <mxGeometry relative="1" as="geometry" />
        </mxCell>
        <mxCell id="iWbG6g7Ilt0xfhzVOyty-36" value="是" style="edgeLabel;html=1;align=center;verticalAlign=middle;resizable=0;points=[];" vertex="1" connectable="0" parent="iWbG6g7Ilt0xfhzVOyty-35">
          <mxGeometry x="0.3794" y="1" relative="1" as="geometry">
            <mxPoint x="1" as="offset" />
          </mxGeometry>
        </mxCell>
        <mxCell id="iWbG6g7Ilt0xfhzVOyty-22" value="合并的uid是否是当前登录uid" style="rhombus;whiteSpace=wrap;html=1;align=center;" vertex="1" parent="I7XONH3aEFssyfK8JSaG-1">
          <mxGeometry x="851" y="500" width="80" height="80" as="geometry" />
        </mxCell>
        <mxCell id="iWbG6g7Ilt0xfhzVOyty-26" style="edgeStyle=orthogonalEdgeStyle;rounded=0;orthogonalLoop=1;jettySize=auto;html=1;" edge="1" parent="I7XONH3aEFssyfK8JSaG-1" source="iWbG6g7Ilt0xfhzVOyty-25" target="oAttbDL27qv9GPI92q8D-0">
          <mxGeometry relative="1" as="geometry" />
        </mxCell>
        <mxCell id="iWbG6g7Ilt0xfhzVOyty-27" value="否" style="edgeLabel;html=1;align=center;verticalAlign=middle;resizable=0;points=[];" vertex="1" connectable="0" parent="iWbG6g7Ilt0xfhzVOyty-26">
          <mxGeometry x="0.2012" y="4" relative="1" as="geometry">
            <mxPoint x="-4" y="-4" as="offset" />
          </mxGeometry>
        </mxCell>
        <mxCell id="iWbG6g7Ilt0xfhzVOyty-30" value="" style="edgeStyle=orthogonalEdgeStyle;rounded=0;orthogonalLoop=1;jettySize=auto;html=1;" edge="1" parent="I7XONH3aEFssyfK8JSaG-1" source="iWbG6g7Ilt0xfhzVOyty-25" target="iWbG6g7Ilt0xfhzVOyty-29">
          <mxGeometry relative="1" as="geometry" />
        </mxCell>
        <mxCell id="iWbG6g7Ilt0xfhzVOyty-31" value="是" style="edgeLabel;html=1;align=center;verticalAlign=middle;resizable=0;points=[];" vertex="1" connectable="0" parent="iWbG6g7Ilt0xfhzVOyty-30">
          <mxGeometry x="-0.3344" y="2" relative="1" as="geometry">
            <mxPoint as="offset" />
          </mxGeometry>
        </mxCell>
        <mxCell id="iWbG6g7Ilt0xfhzVOyty-25" value="是否放弃" style="rhombus;whiteSpace=wrap;html=1;align=center;" vertex="1" parent="I7XONH3aEFssyfK8JSaG-1">
          <mxGeometry x="426" y="356" width="80" height="80" as="geometry" />
        </mxCell>
        <mxCell id="iWbG6g7Ilt0xfhzVOyty-29" value="返回" style="rounded=0;whiteSpace=wrap;html=1;align=center;fillColor=#f5f5f5;strokeColor=#666666;fontColor=#333333;" vertex="1" parent="I7XONH3aEFssyfK8JSaG-1">
          <mxGeometry x="406" y="257" width="120" height="60" as="geometry" />
        </mxCell>
        <mxCell id="iWbG6g7Ilt0xfhzVOyty-34" value="返回成功" style="rounded=0;whiteSpace=wrap;html=1;align=center;fillColor=#f5f5f5;strokeColor=#666666;fontColor=#333333;" vertex="1" parent="I7XONH3aEFssyfK8JSaG-1">
          <mxGeometry x="973" y="510" width="120" height="60" as="geometry" />
        </mxCell>
        <mxCell id="oAttbDL27qv9GPI92q8D-6" style="edgeStyle=orthogonalEdgeStyle;rounded=0;orthogonalLoop=1;jettySize=auto;html=1;" edge="1" parent="I7XONH3aEFssyfK8JSaG-1" source="oAttbDL27qv9GPI92q8D-0" target="oAttbDL27qv9GPI92q8D-5">
          <mxGeometry relative="1" as="geometry" />
        </mxCell>
        <mxCell id="oAttbDL27qv9GPI92q8D-10" value="是" style="edgeLabel;html=1;align=center;verticalAlign=middle;resizable=0;points=[];" vertex="1" connectable="0" parent="oAttbDL27qv9GPI92q8D-6">
          <mxGeometry x="0.0243" y="3" relative="1" as="geometry">
            <mxPoint as="offset" />
          </mxGeometry>
        </mxCell>
        <mxCell id="oAttbDL27qv9GPI92q8D-7" style="edgeStyle=orthogonalEdgeStyle;rounded=0;orthogonalLoop=1;jettySize=auto;html=1;" edge="1" parent="I7XONH3aEFssyfK8JSaG-1" source="oAttbDL27qv9GPI92q8D-0" target="iWbG6g7Ilt0xfhzVOyty-20">
          <mxGeometry relative="1" as="geometry" />
        </mxCell>
        <mxCell id="oAttbDL27qv9GPI92q8D-11" value="否" style="edgeLabel;html=1;align=center;verticalAlign=middle;resizable=0;points=[];" vertex="1" connectable="0" parent="oAttbDL27qv9GPI92q8D-7">
          <mxGeometry x="-0.3801" y="4" relative="1" as="geometry">
            <mxPoint as="offset" />
          </mxGeometry>
        </mxCell>
        <mxCell id="oAttbDL27qv9GPI92q8D-0" value="是否有p0资产" style="rhombus;whiteSpace=wrap;html=1;align=center;" vertex="1" parent="I7XONH3aEFssyfK8JSaG-1">
          <mxGeometry x="264" y="356" width="80" height="80" as="geometry" />
        </mxCell>
        <mxCell id="oAttbDL27qv9GPI92q8D-5" value="返回提示不允许操作" style="rounded=0;whiteSpace=wrap;html=1;align=center;fillColor=#f5f5f5;strokeColor=#666666;fontColor=#333333;" vertex="1" parent="I7XONH3aEFssyfK8JSaG-1">
          <mxGeometry x="244" y="252" width="120" height="60" as="geometry" />
        </mxCell>
      </root>
    </mxGraphModel>
  </diagram>
  <diagram id="XAQI0WVDusSHY1bdhvbU" name="账号合并-手机号登录态绑定微信">
    <mxGraphModel dx="2551" dy="838" grid="0" gridSize="10" guides="1" tooltips="1" connect="1" arrows="1" fold="1" page="0" pageScale="1" pageWidth="827" pageHeight="1169" math="0" shadow="0">
      <root>
        <mxCell id="KSN7MenaoUeA6K7D2ECj-0" />
        <mxCell id="KSN7MenaoUeA6K7D2ECj-1" parent="KSN7MenaoUeA6K7D2ECj-0" />
        <mxCell id="fPmZtuNEZrAFOqjOWOS3-0" value="" style="edgeStyle=orthogonalEdgeStyle;rounded=0;orthogonalLoop=1;jettySize=auto;html=1;" edge="1" parent="KSN7MenaoUeA6K7D2ECj-1" source="fPmZtuNEZrAFOqjOWOS3-1" target="fPmZtuNEZrAFOqjOWOS3-23">
          <mxGeometry relative="1" as="geometry" />
        </mxCell>
        <mxCell id="fPmZtuNEZrAFOqjOWOS3-1" value="第三方授权获取uninonid" style="rounded=0;whiteSpace=wrap;html=1;align=center;" vertex="1" parent="KSN7MenaoUeA6K7D2ECj-1">
          <mxGeometry x="119" y="158" width="120" height="60" as="geometry" />
        </mxCell>
        <mxCell id="fPmZtuNEZrAFOqjOWOS3-2" value="" style="edgeStyle=orthogonalEdgeStyle;rounded=0;orthogonalLoop=1;jettySize=auto;html=1;" edge="1" parent="KSN7MenaoUeA6K7D2ECj-1" source="fPmZtuNEZrAFOqjOWOS3-6" target="fPmZtuNEZrAFOqjOWOS3-19">
          <mxGeometry relative="1" as="geometry">
            <mxPoint x="689" y="178" as="targetPoint" />
          </mxGeometry>
        </mxCell>
        <mxCell id="fPmZtuNEZrAFOqjOWOS3-3" value="是" style="edgeLabel;html=1;align=center;verticalAlign=middle;resizable=0;points=[];" vertex="1" connectable="0" parent="fPmZtuNEZrAFOqjOWOS3-2">
          <mxGeometry x="-0.3636" relative="1" as="geometry">
            <mxPoint as="offset" />
          </mxGeometry>
        </mxCell>
        <mxCell id="fPmZtuNEZrAFOqjOWOS3-4" style="edgeStyle=orthogonalEdgeStyle;rounded=0;orthogonalLoop=1;jettySize=auto;html=1;" edge="1" parent="KSN7MenaoUeA6K7D2ECj-1" source="fPmZtuNEZrAFOqjOWOS3-6" target="fPmZtuNEZrAFOqjOWOS3-7">
          <mxGeometry relative="1" as="geometry" />
        </mxCell>
        <mxCell id="fPmZtuNEZrAFOqjOWOS3-5" value="否" style="edgeLabel;html=1;align=center;verticalAlign=middle;resizable=0;points=[];" vertex="1" connectable="0" parent="fPmZtuNEZrAFOqjOWOS3-4">
          <mxGeometry x="-0.7778" y="-2" relative="1" as="geometry">
            <mxPoint as="offset" />
          </mxGeometry>
        </mxCell>
        <mxCell id="fPmZtuNEZrAFOqjOWOS3-6" value="微信有uid" style="rhombus;whiteSpace=wrap;html=1;align=center;" vertex="1" parent="KSN7MenaoUeA6K7D2ECj-1">
          <mxGeometry x="442" y="148" width="80" height="80" as="geometry" />
        </mxCell>
        <mxCell id="fPmZtuNEZrAFOqjOWOS3-7" value="微信绑定到当前uid&lt;br&gt;返回" style="rounded=0;whiteSpace=wrap;html=1;align=center;fillColor=#f5f5f5;strokeColor=#666666;fontColor=#333333;" vertex="1" parent="KSN7MenaoUeA6K7D2ECj-1">
          <mxGeometry x="422" y="37" width="120" height="60" as="geometry" />
        </mxCell>
        <mxCell id="fPmZtuNEZrAFOqjOWOS3-8" value="" style="edgeStyle=orthogonalEdgeStyle;rounded=0;orthogonalLoop=1;jettySize=auto;html=1;" edge="1" parent="KSN7MenaoUeA6K7D2ECj-1" source="fPmZtuNEZrAFOqjOWOS3-46" target="fPmZtuNEZrAFOqjOWOS3-11">
          <mxGeometry relative="1" as="geometry" />
        </mxCell>
        <mxCell id="fPmZtuNEZrAFOqjOWOS3-9" value="否" style="edgeLabel;html=1;align=center;verticalAlign=middle;resizable=0;points=[];" vertex="1" connectable="0" parent="fPmZtuNEZrAFOqjOWOS3-8">
          <mxGeometry x="-0.1549" y="2" relative="1" as="geometry">
            <mxPoint as="offset" />
          </mxGeometry>
        </mxCell>
        <mxCell id="fPmZtuNEZrAFOqjOWOS3-10" style="edgeStyle=orthogonalEdgeStyle;rounded=0;orthogonalLoop=1;jettySize=auto;html=1;" edge="1" parent="KSN7MenaoUeA6K7D2ECj-1" source="fPmZtuNEZrAFOqjOWOS3-11" target="fPmZtuNEZrAFOqjOWOS3-12">
          <mxGeometry relative="1" as="geometry" />
        </mxCell>
        <mxCell id="fPmZtuNEZrAFOqjOWOS3-11" value="重新登录" style="rounded=0;whiteSpace=wrap;html=1;align=center;" vertex="1" parent="KSN7MenaoUeA6K7D2ECj-1">
          <mxGeometry x="575" y="521" width="120" height="60" as="geometry" />
        </mxCell>
        <mxCell id="fPmZtuNEZrAFOqjOWOS3-12" value="返回登录信息、是否切换登录等" style="rounded=0;whiteSpace=wrap;html=1;align=center;fillColor=#f5f5f5;strokeColor=#666666;fontColor=#333333;" vertex="1" parent="KSN7MenaoUeA6K7D2ECj-1">
          <mxGeometry x="403" y="521" width="120" height="60" as="geometry" />
        </mxCell>
        <mxCell id="fPmZtuNEZrAFOqjOWOS3-13" value="" style="edgeStyle=orthogonalEdgeStyle;rounded=0;orthogonalLoop=1;jettySize=auto;html=1;" edge="1" parent="KSN7MenaoUeA6K7D2ECj-1" source="fPmZtuNEZrAFOqjOWOS3-14" target="fPmZtuNEZrAFOqjOWOS3-1">
          <mxGeometry relative="1" as="geometry">
            <mxPoint x="52" y="178" as="sourcePoint" />
          </mxGeometry>
        </mxCell>
        <mxCell id="fPmZtuNEZrAFOqjOWOS3-14" value="" style="ellipse;whiteSpace=wrap;html=1;align=center;" vertex="1" parent="KSN7MenaoUeA6K7D2ECj-1">
          <mxGeometry x="-52" y="148" width="120" height="80" as="geometry" />
        </mxCell>
        <mxCell id="fPmZtuNEZrAFOqjOWOS3-15" style="edgeStyle=orthogonalEdgeStyle;rounded=0;orthogonalLoop=1;jettySize=auto;html=1;" edge="1" parent="KSN7MenaoUeA6K7D2ECj-1" source="fPmZtuNEZrAFOqjOWOS3-19" target="fPmZtuNEZrAFOqjOWOS3-25">
          <mxGeometry relative="1" as="geometry" />
        </mxCell>
        <mxCell id="fPmZtuNEZrAFOqjOWOS3-16" value="是" style="edgeLabel;html=1;align=center;verticalAlign=middle;resizable=0;points=[];" vertex="1" connectable="0" parent="fPmZtuNEZrAFOqjOWOS3-15">
          <mxGeometry x="-0.0018" y="1" relative="1" as="geometry">
            <mxPoint as="offset" />
          </mxGeometry>
        </mxCell>
        <mxCell id="fPmZtuNEZrAFOqjOWOS3-17" style="edgeStyle=orthogonalEdgeStyle;rounded=0;orthogonalLoop=1;jettySize=auto;html=1;" edge="1" parent="KSN7MenaoUeA6K7D2ECj-1" source="fPmZtuNEZrAFOqjOWOS3-19" target="fPmZtuNEZrAFOqjOWOS3-29">
          <mxGeometry relative="1" as="geometry" />
        </mxCell>
        <mxCell id="fPmZtuNEZrAFOqjOWOS3-18" value="否" style="edgeLabel;html=1;align=center;verticalAlign=middle;resizable=0;points=[];" vertex="1" connectable="0" parent="fPmZtuNEZrAFOqjOWOS3-17">
          <mxGeometry x="-0.2037" relative="1" as="geometry">
            <mxPoint as="offset" />
          </mxGeometry>
        </mxCell>
        <mxCell id="fPmZtuNEZrAFOqjOWOS3-19" value="unionid和手机是一个uid" style="rhombus;whiteSpace=wrap;html=1;align=center;" vertex="1" parent="KSN7MenaoUeA6K7D2ECj-1">
          <mxGeometry x="594" y="148" width="80" height="80" as="geometry" />
        </mxCell>
        <mxCell id="fPmZtuNEZrAFOqjOWOS3-20" value="" style="edgeStyle=orthogonalEdgeStyle;rounded=0;orthogonalLoop=1;jettySize=auto;html=1;" edge="1" parent="KSN7MenaoUeA6K7D2ECj-1" source="fPmZtuNEZrAFOqjOWOS3-23" target="fPmZtuNEZrAFOqjOWOS3-6">
          <mxGeometry relative="1" as="geometry" />
        </mxCell>
        <mxCell id="fPmZtuNEZrAFOqjOWOS3-21" style="edgeStyle=orthogonalEdgeStyle;rounded=0;orthogonalLoop=1;jettySize=auto;html=1;" edge="1" parent="KSN7MenaoUeA6K7D2ECj-1" source="fPmZtuNEZrAFOqjOWOS3-23" target="fPmZtuNEZrAFOqjOWOS3-24">
          <mxGeometry relative="1" as="geometry" />
        </mxCell>
        <mxCell id="fPmZtuNEZrAFOqjOWOS3-22" value="是" style="edgeLabel;html=1;align=center;verticalAlign=middle;resizable=0;points=[];" vertex="1" connectable="0" parent="fPmZtuNEZrAFOqjOWOS3-21">
          <mxGeometry x="0.159" y="3" relative="1" as="geometry">
            <mxPoint x="3" y="12.15" as="offset" />
          </mxGeometry>
        </mxCell>
        <mxCell id="fPmZtuNEZrAFOqjOWOS3-23" value="当前手机号绑定了微信" style="rhombus;whiteSpace=wrap;html=1;align=center;" vertex="1" parent="KSN7MenaoUeA6K7D2ECj-1">
          <mxGeometry x="294" y="148" width="80" height="80" as="geometry" />
        </mxCell>
        <mxCell id="fPmZtuNEZrAFOqjOWOS3-24" value="返回已绑定和当前手机号是否一样" style="rounded=0;whiteSpace=wrap;html=1;align=center;fillColor=#f5f5f5;strokeColor=#666666;fontColor=#333333;" vertex="1" parent="KSN7MenaoUeA6K7D2ECj-1">
          <mxGeometry x="274" y="43" width="120" height="60" as="geometry" />
        </mxCell>
        <mxCell id="fPmZtuNEZrAFOqjOWOS3-25" value="返回提示是同一个账号" style="rounded=0;whiteSpace=wrap;html=1;align=center;fillColor=#f5f5f5;strokeColor=#666666;fontColor=#333333;" vertex="1" parent="KSN7MenaoUeA6K7D2ECj-1">
          <mxGeometry x="574" y="33" width="120" height="60" as="geometry" />
        </mxCell>
        <mxCell id="fPmZtuNEZrAFOqjOWOS3-26" value="都没有资产" style="edgeStyle=orthogonalEdgeStyle;rounded=0;orthogonalLoop=1;jettySize=auto;html=1;" edge="1" parent="KSN7MenaoUeA6K7D2ECj-1" source="fPmZtuNEZrAFOqjOWOS3-29" target="fPmZtuNEZrAFOqjOWOS3-31">
          <mxGeometry relative="1" as="geometry" />
        </mxCell>
        <mxCell id="fPmZtuNEZrAFOqjOWOS3-27" value="都有" style="edgeStyle=orthogonalEdgeStyle;rounded=0;orthogonalLoop=1;jettySize=auto;html=1;" edge="1" parent="KSN7MenaoUeA6K7D2ECj-1" source="fPmZtuNEZrAFOqjOWOS3-29" target="fPmZtuNEZrAFOqjOWOS3-36">
          <mxGeometry relative="1" as="geometry" />
        </mxCell>
        <mxCell id="fPmZtuNEZrAFOqjOWOS3-28" value="有一个有资产" style="edgeStyle=orthogonalEdgeStyle;rounded=0;orthogonalLoop=1;jettySize=auto;html=1;" edge="1" parent="KSN7MenaoUeA6K7D2ECj-1" source="fPmZtuNEZrAFOqjOWOS3-29" target="fPmZtuNEZrAFOqjOWOS3-33">
          <mxGeometry relative="1" as="geometry" />
        </mxCell>
        <mxCell id="fPmZtuNEZrAFOqjOWOS3-29" value="判断资产" style="rhombus;whiteSpace=wrap;html=1;align=center;" vertex="1" parent="KSN7MenaoUeA6K7D2ECj-1">
          <mxGeometry x="799" y="240" width="80" height="80" as="geometry" />
        </mxCell>
        <mxCell id="fPmZtuNEZrAFOqjOWOS3-30" style="edgeStyle=orthogonalEdgeStyle;rounded=0;orthogonalLoop=1;jettySize=auto;html=1;" edge="1" parent="KSN7MenaoUeA6K7D2ECj-1" source="fPmZtuNEZrAFOqjOWOS3-31" target="fPmZtuNEZrAFOqjOWOS3-46">
          <mxGeometry relative="1" as="geometry">
            <Array as="points">
              <mxPoint x="966" y="477" />
              <mxPoint x="834" y="477" />
            </Array>
          </mxGeometry>
        </mxCell>
        <mxCell id="fPmZtuNEZrAFOqjOWOS3-31" value="合并到手机号uid上" style="rounded=0;whiteSpace=wrap;html=1;align=center;" vertex="1" parent="KSN7MenaoUeA6K7D2ECj-1">
          <mxGeometry x="906" y="364" width="120" height="60" as="geometry" />
        </mxCell>
        <mxCell id="fPmZtuNEZrAFOqjOWOS3-32" value="" style="edgeStyle=orthogonalEdgeStyle;rounded=0;orthogonalLoop=1;jettySize=auto;html=1;" edge="1" parent="KSN7MenaoUeA6K7D2ECj-1" source="fPmZtuNEZrAFOqjOWOS3-33" target="fPmZtuNEZrAFOqjOWOS3-46">
          <mxGeometry relative="1" as="geometry" />
        </mxCell>
        <mxCell id="fPmZtuNEZrAFOqjOWOS3-33" value="合并到有资产的uid上" style="rounded=0;whiteSpace=wrap;html=1;align=center;" vertex="1" parent="KSN7MenaoUeA6K7D2ECj-1">
          <mxGeometry x="776" y="367" width="120" height="60" as="geometry" />
        </mxCell>
        <mxCell id="fPmZtuNEZrAFOqjOWOS3-34" style="edgeStyle=orthogonalEdgeStyle;rounded=0;orthogonalLoop=1;jettySize=auto;html=1;" edge="1" parent="KSN7MenaoUeA6K7D2ECj-1" source="fPmZtuNEZrAFOqjOWOS3-36" target="fPmZtuNEZrAFOqjOWOS3-38">
          <mxGeometry relative="1" as="geometry" />
        </mxCell>
        <mxCell id="fPmZtuNEZrAFOqjOWOS3-35" value="微信id登录" style="edgeLabel;html=1;align=center;verticalAlign=middle;resizable=0;points=[];" vertex="1" connectable="0" parent="fPmZtuNEZrAFOqjOWOS3-34">
          <mxGeometry x="-0.0879" y="-3" relative="1" as="geometry">
            <mxPoint as="offset" />
          </mxGeometry>
        </mxCell>
        <mxCell id="fPmZtuNEZrAFOqjOWOS3-36" value="获取两个账号的资产信息" style="rounded=0;whiteSpace=wrap;html=1;align=center;" vertex="1" parent="KSN7MenaoUeA6K7D2ECj-1">
          <mxGeometry x="624" y="247" width="120" height="60" as="geometry" />
        </mxCell>
        <mxCell id="fPmZtuNEZrAFOqjOWOS3-37" value="" style="edgeStyle=orthogonalEdgeStyle;rounded=0;orthogonalLoop=1;jettySize=auto;html=1;dashed=1;" edge="1" parent="KSN7MenaoUeA6K7D2ECj-1" source="fPmZtuNEZrAFOqjOWOS3-38" target="fPmZtuNEZrAFOqjOWOS3-51">
          <mxGeometry relative="1" as="geometry">
            <mxPoint x="480" y="662" as="targetPoint" />
          </mxGeometry>
        </mxCell>
        <mxCell id="fPmZtuNEZrAFOqjOWOS3-38" value="执行登录&lt;br&gt;返回登录信息、资产信息" style="rounded=0;whiteSpace=wrap;html=1;align=center;fillColor=#f5f5f5;strokeColor=#666666;fontColor=#333333;" vertex="1" parent="KSN7MenaoUeA6K7D2ECj-1">
          <mxGeometry x="624" y="375" width="120" height="60" as="geometry" />
        </mxCell>
        <mxCell id="fPmZtuNEZrAFOqjOWOS3-39" style="edgeStyle=orthogonalEdgeStyle;rounded=0;orthogonalLoop=1;jettySize=auto;html=1;dashed=1;" edge="1" parent="KSN7MenaoUeA6K7D2ECj-1" source="fPmZtuNEZrAFOqjOWOS3-41">
          <mxGeometry relative="1" as="geometry">
            <mxPoint x="539" y="402" as="targetPoint" />
          </mxGeometry>
        </mxCell>
        <mxCell id="fPmZtuNEZrAFOqjOWOS3-40" value="选择保留账号" style="edgeLabel;html=1;align=center;verticalAlign=middle;resizable=0;points=[];" vertex="1" connectable="0" parent="fPmZtuNEZrAFOqjOWOS3-39">
          <mxGeometry x="-0.1228" y="1" relative="1" as="geometry">
            <mxPoint as="offset" />
          </mxGeometry>
        </mxCell>
        <mxCell id="fPmZtuNEZrAFOqjOWOS3-41" value="Actor" style="shape=umlActor;verticalLabelPosition=bottom;labelBackgroundColor=#ffffff;verticalAlign=top;html=1;outlineConnect=0;align=center;" vertex="1" parent="KSN7MenaoUeA6K7D2ECj-1">
          <mxGeometry x="522" y="263" width="30" height="60" as="geometry" />
        </mxCell>
        <mxCell id="fPmZtuNEZrAFOqjOWOS3-42" style="edgeStyle=orthogonalEdgeStyle;rounded=0;orthogonalLoop=1;jettySize=auto;html=1;exitX=0.5;exitY=1;exitDx=0;exitDy=0;" edge="1" parent="KSN7MenaoUeA6K7D2ECj-1" source="fPmZtuNEZrAFOqjOWOS3-43" target="fPmZtuNEZrAFOqjOWOS3-46">
          <mxGeometry relative="1" as="geometry">
            <Array as="points">
              <mxPoint x="98" y="476" />
              <mxPoint x="834" y="476" />
            </Array>
          </mxGeometry>
        </mxCell>
        <mxCell id="fPmZtuNEZrAFOqjOWOS3-43" value="合并到选择的uid上" style="rounded=0;whiteSpace=wrap;html=1;align=center;" vertex="1" parent="KSN7MenaoUeA6K7D2ECj-1">
          <mxGeometry x="38" y="377" width="120" height="60" as="geometry" />
        </mxCell>
        <mxCell id="fPmZtuNEZrAFOqjOWOS3-44" value="" style="edgeStyle=orthogonalEdgeStyle;rounded=0;orthogonalLoop=1;jettySize=auto;html=1;" edge="1" parent="KSN7MenaoUeA6K7D2ECj-1" source="fPmZtuNEZrAFOqjOWOS3-46" target="fPmZtuNEZrAFOqjOWOS3-53">
          <mxGeometry relative="1" as="geometry" />
        </mxCell>
        <mxCell id="fPmZtuNEZrAFOqjOWOS3-45" value="是" style="edgeLabel;html=1;align=center;verticalAlign=middle;resizable=0;points=[];" vertex="1" connectable="0" parent="fPmZtuNEZrAFOqjOWOS3-44">
          <mxGeometry x="0.3794" y="1" relative="1" as="geometry">
            <mxPoint x="1" as="offset" />
          </mxGeometry>
        </mxCell>
        <mxCell id="fPmZtuNEZrAFOqjOWOS3-46" value="合并的uid是否是当前登录uid" style="rhombus;whiteSpace=wrap;html=1;align=center;" vertex="1" parent="KSN7MenaoUeA6K7D2ECj-1">
          <mxGeometry x="796" y="511" width="80" height="80" as="geometry" />
        </mxCell>
        <mxCell id="fPmZtuNEZrAFOqjOWOS3-47" style="edgeStyle=orthogonalEdgeStyle;rounded=0;orthogonalLoop=1;jettySize=auto;html=1;" edge="1" parent="KSN7MenaoUeA6K7D2ECj-1" source="fPmZtuNEZrAFOqjOWOS3-51" target="fPmZtuNEZrAFOqjOWOS3-58">
          <mxGeometry relative="1" as="geometry" />
        </mxCell>
        <mxCell id="fPmZtuNEZrAFOqjOWOS3-48" value="否" style="edgeLabel;html=1;align=center;verticalAlign=middle;resizable=0;points=[];" vertex="1" connectable="0" parent="fPmZtuNEZrAFOqjOWOS3-47">
          <mxGeometry x="0.2012" y="4" relative="1" as="geometry">
            <mxPoint x="-4" y="-4" as="offset" />
          </mxGeometry>
        </mxCell>
        <mxCell id="fPmZtuNEZrAFOqjOWOS3-49" value="" style="edgeStyle=orthogonalEdgeStyle;rounded=0;orthogonalLoop=1;jettySize=auto;html=1;" edge="1" parent="KSN7MenaoUeA6K7D2ECj-1" source="fPmZtuNEZrAFOqjOWOS3-51" target="fPmZtuNEZrAFOqjOWOS3-52">
          <mxGeometry relative="1" as="geometry" />
        </mxCell>
        <mxCell id="fPmZtuNEZrAFOqjOWOS3-50" value="是" style="edgeLabel;html=1;align=center;verticalAlign=middle;resizable=0;points=[];" vertex="1" connectable="0" parent="fPmZtuNEZrAFOqjOWOS3-49">
          <mxGeometry x="-0.3344" y="2" relative="1" as="geometry">
            <mxPoint as="offset" />
          </mxGeometry>
        </mxCell>
        <mxCell id="fPmZtuNEZrAFOqjOWOS3-51" value="是否放弃" style="rhombus;whiteSpace=wrap;html=1;align=center;" vertex="1" parent="KSN7MenaoUeA6K7D2ECj-1">
          <mxGeometry x="371" y="367" width="80" height="80" as="geometry" />
        </mxCell>
        <mxCell id="fPmZtuNEZrAFOqjOWOS3-52" value="返回" style="rounded=0;whiteSpace=wrap;html=1;align=center;fillColor=#f5f5f5;strokeColor=#666666;fontColor=#333333;" vertex="1" parent="KSN7MenaoUeA6K7D2ECj-1">
          <mxGeometry x="351" y="268" width="120" height="60" as="geometry" />
        </mxCell>
        <mxCell id="fPmZtuNEZrAFOqjOWOS3-53" value="返回成功" style="rounded=0;whiteSpace=wrap;html=1;align=center;fillColor=#f5f5f5;strokeColor=#666666;fontColor=#333333;" vertex="1" parent="KSN7MenaoUeA6K7D2ECj-1">
          <mxGeometry x="918" y="521" width="120" height="60" as="geometry" />
        </mxCell>
        <mxCell id="fPmZtuNEZrAFOqjOWOS3-54" style="edgeStyle=orthogonalEdgeStyle;rounded=0;orthogonalLoop=1;jettySize=auto;html=1;" edge="1" parent="KSN7MenaoUeA6K7D2ECj-1" source="fPmZtuNEZrAFOqjOWOS3-58" target="fPmZtuNEZrAFOqjOWOS3-59">
          <mxGeometry relative="1" as="geometry" />
        </mxCell>
        <mxCell id="fPmZtuNEZrAFOqjOWOS3-55" value="是" style="edgeLabel;html=1;align=center;verticalAlign=middle;resizable=0;points=[];" vertex="1" connectable="0" parent="fPmZtuNEZrAFOqjOWOS3-54">
          <mxGeometry x="0.0243" y="3" relative="1" as="geometry">
            <mxPoint as="offset" />
          </mxGeometry>
        </mxCell>
        <mxCell id="fPmZtuNEZrAFOqjOWOS3-56" style="edgeStyle=orthogonalEdgeStyle;rounded=0;orthogonalLoop=1;jettySize=auto;html=1;" edge="1" parent="KSN7MenaoUeA6K7D2ECj-1" source="fPmZtuNEZrAFOqjOWOS3-58" target="fPmZtuNEZrAFOqjOWOS3-43">
          <mxGeometry relative="1" as="geometry" />
        </mxCell>
        <mxCell id="fPmZtuNEZrAFOqjOWOS3-57" value="否" style="edgeLabel;html=1;align=center;verticalAlign=middle;resizable=0;points=[];" vertex="1" connectable="0" parent="fPmZtuNEZrAFOqjOWOS3-56">
          <mxGeometry x="-0.3801" y="4" relative="1" as="geometry">
            <mxPoint as="offset" />
          </mxGeometry>
        </mxCell>
        <mxCell id="fPmZtuNEZrAFOqjOWOS3-58" value="是否有p0资产" style="rhombus;whiteSpace=wrap;html=1;align=center;" vertex="1" parent="KSN7MenaoUeA6K7D2ECj-1">
          <mxGeometry x="209" y="367" width="80" height="80" as="geometry" />
        </mxCell>
        <mxCell id="fPmZtuNEZrAFOqjOWOS3-59" value="返回提示不允许操作" style="rounded=0;whiteSpace=wrap;html=1;align=center;fillColor=#f5f5f5;strokeColor=#666666;fontColor=#333333;" vertex="1" parent="KSN7MenaoUeA6K7D2ECj-1">
          <mxGeometry x="189" y="263" width="120" height="60" as="geometry" />
        </mxCell>
      </root>
    </mxGraphModel>
  </diagram>
  <diagram id="-oUJSVeAqK9hpndeQHAV" name="账号合并-解绑流程">
    <mxGraphModel dx="958" dy="511" grid="1" gridSize="10" guides="1" tooltips="1" connect="1" arrows="1" fold="1" page="1" pageScale="1" pageWidth="827" pageHeight="1169" math="0" shadow="0">
      <root>
        <mxCell id="N2vYOHLga8wtiHKOOuHQ-0" />
        <mxCell id="N2vYOHLga8wtiHKOOuHQ-1" parent="N2vYOHLga8wtiHKOOuHQ-0" />
      </root>
    </mxGraphModel>
  </diagram>
</mxfile>
